<svg width="90" height="90" viewBox="0 0 90 90" fill="none" xmlns="http://www.w3.org/2000/svg">
<path d="M83.6997 40.6694L81.369 31.3468C82.0062 31.2115 82.4843 30.6461 82.4843 29.9689V28.4657C82.4843 25.2022 79.8291 22.5472 76.5658 22.5472H65.95V19.4468C65.95 17.8408 64.6436 16.5344 63.0376 16.5344H8.92477C7.31883 16.5344 6.01242 17.8408 6.01242 19.4468V45.0001C6.01242 45.7783 6.6433 46.4093 7.42166 46.4093C8.19984 46.4093 8.8309 45.7784 8.8309 45.0001V19.4468C8.8309 19.3949 8.87291 19.3529 8.92477 19.3529H63.0374C63.0893 19.3529 63.1313 19.3949 63.1313 19.4468V45.0004C63.1313 45.7786 63.7622 46.4097 64.5406 46.4097C65.3187 46.4097 65.9498 45.7788 65.9498 45.0004V43.4029H82.5732C82.5747 43.4029 82.5757 43.4033 82.5769 43.4033C82.5783 43.4033 82.5796 43.4031 82.5808 43.4031C84.6264 43.4045 86.3633 44.7471 86.9599 46.5972H82.578C81.7998 46.5972 81.1688 47.2281 81.1688 48.0065V51.0127C81.1688 53.4474 83.1495 55.4281 85.5842 55.4281H87.1814V61.6285H83.4966C82.2862 58.1334 78.9638 55.6159 75.0623 55.6159C71.1608 55.6159 67.8382 58.1334 66.628 61.6285H65.9494V51.0125C65.9494 50.2343 65.3186 49.6033 64.5402 49.6033C63.762 49.6033 63.131 50.2341 63.131 51.0125V61.6281H33.8936C32.6832 58.133 29.3607 55.6155 25.4593 55.6155C21.5578 55.6155 18.2352 58.133 17.0249 61.6281H8.92477C8.87291 61.6281 8.8309 61.5861 8.8309 61.5342V58.434H14.9374C15.7155 58.434 16.3466 57.8031 16.3466 57.0247C16.3466 56.2464 15.7157 55.6155 14.9374 55.6155H1.40924C0.631055 55.6155 0 56.2464 0 57.0247C0 57.8031 0.630879 58.434 1.40924 58.434H6.0126V61.5342C6.0126 63.1402 7.319 64.4466 8.92494 64.4466H16.537C16.5366 64.4779 16.5345 64.509 16.5345 64.5404C16.5345 69.4616 20.5383 73.4652 25.4593 73.4652C30.3803 73.4652 34.384 69.4616 34.384 64.5404C34.384 64.5088 34.3819 64.4779 34.3816 64.4466H66.14C66.1396 64.4779 66.1375 64.509 66.1375 64.5404C66.1375 69.4616 70.1413 73.4652 75.0623 73.4652C79.9833 73.4652 83.9871 69.4616 83.9871 64.5404C83.9871 64.5088 83.9849 64.4779 83.9846 64.4466H88.5906C89.3688 64.4466 89.9998 63.8157 89.9998 63.0373V48.0061C90 44.295 87.2619 41.2116 83.6997 40.6694ZM65.95 25.3655H76.5658C78.2752 25.3655 79.666 26.7563 79.666 28.4657V28.5596H65.95V25.3655ZM65.95 40.5846V31.3779H78.4717L80.7734 40.5846H65.95ZM25.4593 70.6473C22.0922 70.6473 19.3528 67.9081 19.3528 64.5408C19.3528 61.1735 22.0922 58.4343 25.4593 58.4343C28.8264 58.4343 31.5657 61.1735 31.5657 64.5408C31.5657 67.9081 28.8264 70.6473 25.4593 70.6473ZM75.0626 70.6473C71.6956 70.6473 68.9562 67.9081 68.9562 64.5408C68.9562 61.1735 71.6956 58.4343 75.0626 58.4343C78.4297 58.4343 81.1691 61.1735 81.1691 64.5408C81.1691 67.9081 78.4297 70.6473 75.0626 70.6473ZM87.1817 52.6096H85.5846C84.7039 52.6096 83.9874 51.8932 83.9874 51.0125V49.4154H87.1815V52.6096H87.1817Z" fill="#6ABD18"/>
<path d="M25.4592 61.6284C23.8533 61.6284 22.5469 62.9348 22.5469 64.5408C22.5469 66.1467 23.8533 67.4531 25.4592 67.4531C27.0652 67.4531 28.3716 66.1467 28.3716 64.5408C28.3716 62.9348 27.0652 61.6284 25.4592 61.6284Z" fill="#6ABD18"/>
<path d="M75.0627 61.6284C73.4568 61.6284 72.1504 62.9348 72.1504 64.5408C72.1504 66.1467 73.4568 67.4531 75.0627 67.4531C76.6687 67.4531 77.9751 66.1467 77.9751 64.5408C77.9751 62.9348 76.6687 61.6284 75.0627 61.6284Z" fill="#6ABD18"/>
<path d="M58.5283 55.616H37.4844C36.7062 55.616 36.0752 56.2468 36.0752 57.0252C36.0752 57.8036 36.7061 58.4344 37.4844 58.4344H58.5283C59.3064 58.4344 59.9375 57.8036 59.9375 57.0252C59.9375 56.2468 59.3066 55.616 58.5283 55.616Z" fill="#6ABD18"/>
<path d="M22.4527 49.6033H4.4151C3.63691 49.6033 3.00586 50.2341 3.00586 51.0125C3.00586 51.7909 3.63674 52.4217 4.4151 52.4217H22.4527C23.2309 52.4217 23.8619 51.7909 23.8619 51.0125C23.8619 50.2341 23.2309 49.6033 22.4527 49.6033Z" fill="#6ABD18"/>
<path d="M49.0032 30.4751C48.453 29.9249 47.5605 29.9249 47.0103 30.4753L34.4785 43.0069L27.9593 36.4877C27.4089 35.9374 26.5167 35.9374 25.9665 36.4877C25.4161 37.0381 25.4161 37.9302 25.9665 38.4806L33.4822 45.9963C33.7573 46.2715 34.118 46.409 34.4785 46.409C34.839 46.409 35.1999 46.2715 35.4749 45.9963L49.003 32.4681C49.5533 31.9176 49.5534 31.0255 49.0032 30.4751Z" fill="#6ABD18"/>
</svg>
