<svg width="39" height="39" viewBox="0 0 39 39" fill="none" xmlns="http://www.w3.org/2000/svg">
<path d="M24.375 36.5625H5.48438V29.25C5.48438 28.9148 5.21016 28.6406 4.875 28.6406C4.53984 28.6406 4.26562 28.9148 4.26562 29.25V37.1719C4.26562 37.507 4.53984 37.7812 4.875 37.7812H24.375C24.7102 37.7812 24.9844 37.507 24.9844 37.1719C24.9844 36.8367 24.7102 36.5625 24.375 36.5625Z" fill="#6ABD18"/>
<path d="M31.0781 6.09375H32.2969C33.6451 6.09375 34.7344 5.00449 34.7344 3.65625C34.7344 2.30801 33.6451 1.21875 32.2969 1.21875H10.9688C9.28535 1.21875 7.92188 2.58223 7.92188 4.26562V4.5627C7.91426 5.81953 7.60195 7.06113 7.03066 8.17324C5.21777 11.8143 4.27324 15.8285 4.26562 19.9037V26.8125C4.26562 27.1477 4.53984 27.4219 4.875 27.4219C5.21016 27.4219 5.48438 27.1477 5.48438 26.8125V19.9037C5.49199 16.0189 6.39082 12.1951 8.11992 8.72168C8.78262 7.43437 9.12539 6.00996 9.14062 4.5627V4.26562C9.14062 3.25254 9.95566 2.4375 10.9688 2.4375H30.1869C29.9736 2.81074 29.8594 3.22969 29.8594 3.65625V6.54316C27.4676 10.5879 26.2031 15.2039 26.2031 19.9037V37.1719C26.2031 37.507 26.4773 37.7812 26.8125 37.7812H34.125C34.4602 37.7812 34.7344 37.507 34.7344 37.1719V26.2031C34.7344 25.868 34.4602 25.5938 34.125 25.5938C33.7898 25.5938 33.5156 25.868 33.5156 26.2031V35.5266L31.0781 32.6854V29.8594C31.0781 29.5242 30.8039 29.25 30.4688 29.25C30.1336 29.25 29.8594 29.5242 29.8594 29.8594V32.6777L27.4219 35.5266V19.9037C27.4219 16.1789 28.2598 12.4998 29.8594 9.14062V15.2344C29.8594 15.5695 30.1336 15.8438 30.4688 15.8438C30.8039 15.8438 31.0781 15.5695 31.0781 15.2344V9.14062C32.6777 12.4998 33.5156 16.1789 33.5156 19.9037V23.7656C33.5156 24.1008 33.7898 24.375 34.125 24.375C34.4602 24.375 34.7344 24.1008 34.7344 23.7656V19.9037C34.7344 15.2039 33.4699 10.5879 31.0781 6.54316V6.09375ZM30.4688 33.8432L32.7996 36.5625H28.1379L30.4688 33.8432ZM32.2969 2.4375C32.9672 2.4375 33.5156 2.98594 33.5156 3.65625C33.5156 4.32656 32.9672 4.875 32.2969 4.875H31.0781V3.65625C31.0781 2.98594 31.6266 2.4375 32.2969 2.4375Z" fill="#6ABD18"/>
<path d="M30.4688 18.2812C30.1336 18.2812 29.8594 18.5555 29.8594 18.8906V26.2031C29.8594 26.5383 30.1336 26.8125 30.4688 26.8125C30.8039 26.8125 31.0781 26.5383 31.0781 26.2031V18.8906C31.0781 18.5555 30.8039 18.2812 30.4688 18.2812Z" fill="#6ABD18"/>
<path d="M10.999 8.34082L9.78029 11.9971C9.67364 12.317 9.84884 12.6598 10.1688 12.7664C10.2297 12.7893 10.2983 12.7969 10.3592 12.7969H23.1561C23.415 12.7969 23.6512 12.6293 23.735 12.3779L24.9537 8.72168C25.0604 8.40176 24.8852 8.05898 24.5652 7.95234C24.5043 7.92949 24.4358 7.92188 24.3748 7.92188H11.5779C11.319 7.92188 11.0828 8.08945 10.999 8.34082ZM23.5293 9.14062L22.7143 11.5781H11.2047L12.0197 9.14062H23.5293Z" fill="#6ABD18"/>
<path d="M12.7969 14.0156C12.4617 14.0156 12.1875 14.2898 12.1875 14.625C12.1875 14.9602 12.4617 15.2344 12.7969 15.2344H20.1094C20.4445 15.2344 20.7188 14.9602 20.7188 14.625C20.7188 14.2898 20.4445 14.0156 20.1094 14.0156H12.7969Z" fill="#6ABD18"/>
</svg>
