<svg width="0" height="0" class="hidden">
    <symbol fill="currentColor" xmlns="http://www.w3.org/2000/svg" viewBox="0 0 10 10" id="clock">
      <path
        d="M5 10c-2.757 0-5-2.243-5-5s2.243-5 5-5 5 2.243 5 5-2.243 5-5 5zM5 .625A4.38 4.38 0 00.625 5 4.38 4.38 0 005 9.375 4.38 4.38 0 009.375 5 4.38 4.38 0 005 .625z"></path>
      <path
        d="M7.188 7.708a.31.31 0 01-.221-.091L4.779 5.429a.313.313 0 01-.091-.22V2.291a.313.313 0 01.625 0v2.787l2.095 2.096a.313.313 0 01-.22.533z"></path>
    </symbol>
    <symbol fill="currentColor" xmlns="http://www.w3.org/2000/svg" viewBox="0 0 15 9" id="drop-arrow">
      <path
        d="M7.912 8.38l6.918-6.938a.582.582 0 00-.823-.821L7.5 7.146.993.62a.581.581 0 10-.823.822L7.088 8.38a.58.58 0 00.824 0z"></path>
    </symbol>
    <symbol fill="currentColor" xmlns="http://www.w3.org/2000/svg" viewBox="0 0 22 21" id="facebook">
      <path
        d="M19.25 0H2.75C1.233 0 0 1.177 0 2.625v15.75C0 19.823 1.233 21 2.75 21H11v-7.219H8.25V10.5H11V7.875c0-2.175 1.847-3.938 4.125-3.938h2.75V7.22H16.5c-.759 0-1.375-.069-1.375.656V10.5h3.438l-1.375 3.281h-2.063V21h4.125c1.517 0 2.75-1.177 2.75-2.625V2.625C22 1.177 20.767 0 19.25 0z"></path>
    </symbol>
    <symbol fill="currentColor" xmlns="http://www.w3.org/2000/svg" viewBox="0 0 18 18" id="geo">
      <path
        d="M14.341 2.214a7.548 7.548 0 00-10.68 0 7.548 7.548 0 000 10.68l4.94 4.94a.566.566 0 00.8 0l4.94-4.94a7.548 7.548 0 000-10.68zm-.798 9.881L9 16.637l-4.542-4.542a6.43 6.43 0 010-9.083 6.43 6.43 0 019.084 0 6.43 6.43 0 010 9.083z">
      </path>
      <path
        d="M9.001 4.178a3.374 3.374 0 00-3.376 3.376 3.374 3.374 0 003.376 3.376 3.374 3.374 0 003.376-3.376 3.374 3.374 0 00-3.376-3.376zm1.589 4.965c-.022 0-.554.658-1.589.658a2.246 2.246 0 01-2.247-2.247A2.246 2.246 0 019 5.307c2.017 0 2.987 2.437 1.589 3.836z">
      </path>
    </symbol>
    <symbol fill="currentColor" xmlns="http://www.w3.org/2000/svg" viewBox="0 0 22 21" id="instagram">
      <path
        d="M11 6.234c-2.488 0-4.512 1.932-4.512 4.307 0 2.375 2.024 4.307 4.512 4.307 2.488 0 4.512-1.932 4.512-4.307 0-2.375-2.024-4.307-4.512-4.307zm0 0c-2.488 0-4.512 1.932-4.512 4.307 0 2.375 2.024 4.307 4.512 4.307 2.488 0 4.512-1.932 4.512-4.307 0-2.375-2.024-4.307-4.512-4.307zM18.777 0H3.223C1.443 0 0 1.378 0 3.076v14.848C0 19.622 1.444 21 3.223 21h15.554C20.557 21 22 19.622 22 17.924V3.076C22 1.378 20.556 0 18.777 0zM11 16.078c-3.197 0-5.8-2.486-5.8-5.537 0-3.052 2.603-5.537 5.8-5.537 3.197 0 5.8 2.485 5.8 5.537 0 3.051-2.603 5.537-5.8 5.537zm7.09-11.074c-.71 0-1.29-.554-1.29-1.23 0-.677.58-1.231 1.29-1.231.709 0 1.289.554 1.289 1.23 0 .677-.58 1.23-1.29 1.23zM11 6.234c-2.488 0-4.512 1.932-4.512 4.307 0 2.375 2.024 4.307 4.512 4.307 2.488 0 4.512-1.932 4.512-4.307 0-2.375-2.024-4.307-4.512-4.307zm0 0c-2.488 0-4.512 1.932-4.512 4.307 0 2.375 2.024 4.307 4.512 4.307 2.488 0 4.512-1.932 4.512-4.307 0-2.375-2.024-4.307-4.512-4.307zm0 0c-2.488 0-4.512 1.932-4.512 4.307 0 2.375 2.024 4.307 4.512 4.307 2.488 0 4.512-1.932 4.512-4.307 0-2.375-2.024-4.307-4.512-4.307z"></path>
    </symbol>
    <symbol fill="currentColor" xmlns="http://www.w3.org/2000/svg" viewBox="0 0 14 14" id="loupe">
        <path
          d="M13.829 13.005L9.848 9.024a5.515 5.515 0 001.235-3.481A5.548 5.548 0 005.542 0 5.548 5.548 0 000 5.543a5.548 5.548 0 005.542 5.541 5.515 5.515 0 003.48-1.235l3.982 3.98a.582.582 0 10.825-.824zM5.542 9.917a4.38 4.38 0 01-4.375-4.374 4.38 4.38 0 014.375-4.375 4.38 4.38 0 014.375 4.375 4.38 4.38 0 01-4.375 4.374z"></path>
    </symbol>
    <symbol fill="currentColor" xmlns="http://www.w3.org/2000/svg" viewBox="0 0 19 19" id="mail">
      <path d="M17.33 2.82H1.67C.747 2.82 0 3.572 0 4.49v10.02c0 .923.753 1.67 1.67 1.67h15.66c.915 0 1.67-.744 1.67-1.67V4.49c0-.916-.744-1.67-1.67-1.67zm-.234 1.114l-6.415 6.381c-.316.316-.735.49-1.181.49a1.66 1.66 0 01-1.182-.49L1.904 3.933h15.192zM1.113 14.284V4.717l4.811 4.785-4.81 4.78zm.791.782l4.81-4.778.818.814a2.765 2.765 0 001.968.816c.743 0 1.442-.29 1.967-.815l.82-.815 4.809 4.778H1.904zm15.983-.783l-4.811-4.78 4.81-4.785v9.565z"></path>
    </symbol>
    <symbol fill="currentColor" xmlns="http://www.w3.org/2000/svg" viewBox="0 0 60 60" id="play">
      <path
        d="M51.208 8.791c-11.72-11.72-30.693-11.722-42.416 0-11.722 11.721-11.723 30.695 0 42.417 11.72 11.721 30.694 11.723 42.416 0 11.722-11.72 11.723-30.694 0-42.417zM39.02 31.945l-11.262 8.759c-1.6 1.245-3.976.116-3.976-1.945V21.241c0-2.046 2.36-3.202 3.976-1.945l11.262 8.76a2.465 2.465 0 010 3.889z"></path>
    </symbol>
    <symbol fill="currentColor" xmlns="http://www.w3.org/2000/svg" viewBox="0 0 26 26" id="left-arrow">
      <path d="M.298 13.719l5.308 5.282a1.016 1.016 0 101.433-1.44l-3.563-3.545h21.508a1.016 1.016 0 000-2.032H3.476L7.039 8.44A1.016 1.016 0 005.606 7L.299 12.28l-.001.001a1.016 1.016 0 000 1.438z"></path>
    </symbol>
    <symbol fill="currentColor" xmlns="http://www.w3.org/2000/svg" viewBox="0 0 26 26" id="right-arrow">
      <path d="M25.702 12.281l-5.308-5.282a1.016 1.016 0 00-1.433 1.44l3.563 3.545H1.016a1.016 1.016 0 100 2.032h21.508l-3.563 3.545a1.016 1.016 0 101.433 1.44l5.307-5.281.001-.001a1.016 1.016 0 000-1.438z"></path>
    </symbol>
    <symbol fill="currentColor" xmlns="http://www.w3.org/2000/svg" viewBox="0 0 17 17" id="cart">
      <path
        d="M15.707 5.451h-.882l-.02-.022L10.001.624a.554.554 0 00-.784.784l4.042 4.043H3.74l4.043-4.043A.554.554 0 007 .624L2.195 5.43l-.02.022h-.882A1.293 1.293 0 000 6.745v.739c0 .68.526 1.238 1.193 1.29l1.062 6.374c.135.806.824 1.39 1.64 1.39h9.372c.822 0 1.53-.614 1.646-1.428l.905-6.338A1.295 1.295 0 0017 7.484v-.74c0-.713-.58-1.293-1.293-1.293zm.184 2.033a.185.185 0 01-.184.184h-5.544a.554.554 0 000 1.11h4.535l-.883 6.175a.557.557 0 01-.548.476H3.896a.553.553 0 01-.547-.463L2.317 8.777h4.52a.554.554 0 000-1.109H1.293a.185.185 0 01-.184-.184v-.74c0-.101.083-.184.184-.184h14.413c.102 0 .185.083.185.185v.739z"></path>
      <path
        d="M5.174 9.886a.554.554 0 00-.554.554v3.326a.554.554 0 001.108 0V10.44a.554.554 0 00-.554-.554zm3.326 0a.554.554 0 00-.555.554v3.326a.554.554 0 001.109 0V10.44a.554.554 0 00-.554-.554zm3.326 0a.554.554 0 00-.555.554v3.326a.554.554 0 001.11 0V10.44a.554.554 0 00-.555-.554z"></path>
    </symbol>
    <symbol fill="currentColor" xmlns="http://www.w3.org/2000/svg" viewBox="0 0 17 17" id="user">
      <path
        d="M16.957 14.567a.664.664 0 00-1.3.27.694.694 0 01-.141.582.674.674 0 01-.531.253H2.015a.675.675 0 01-.531-.253.694.694 0 01-.14-.581c.688-3.31 3.608-5.729 6.98-5.81a4.552 4.552 0 00.353 0 7.305 7.305 0 015.9 3.242.664.664 0 101.103-.74 8.638 8.638 0 00-4.476-3.4 4.512 4.512 0 001.812-3.614A4.52 4.52 0 008.5 0a4.52 4.52 0 00-4.516 4.516c0 1.477.714 2.791 1.814 3.616a8.63 8.63 0 00-2.782 1.53 8.663 8.663 0 00-2.973 4.905A2.017 2.017 0 002.015 17h12.97a2.017 2.017 0 001.972-2.433zM5.312 4.516A3.191 3.191 0 018.5 1.328a3.191 3.191 0 013.188 3.188 3.192 3.192 0 01-3.027 3.183 8.752 8.752 0 00-.322 0 3.191 3.191 0 01-3.027-3.183z"></path>
    </symbol>
    <symbol fill="currentColor" xmlns="http://www.w3.org/2000/svg" viewBox="0 0 30 21" id="youtube">
      <path
        d="M28.725 2.005C27.911.545 27.028.276 25.23.174 23.434.051 18.917 0 15.004 0c-3.92 0-8.44.051-10.234.172-1.794.104-2.68.37-3.5 1.833C.43 3.463 0 5.975 0 10.397v.015c0 4.403.431 6.934 1.27 8.377.82 1.46 1.704 1.725 3.498 1.848 1.796.105 6.315.168 10.236.168 3.913 0 8.43-.063 10.228-.166 1.798-.123 2.681-.388 3.495-1.848.846-1.444 1.273-3.974 1.273-8.377v-.015c0-4.424-.427-6.936-1.275-8.394zM11.25 16.077V4.727l9.375 5.675-9.375 5.673z"></path>
    </symbol>
    <symbol fill="currentColor" xmlns="http://www.w3.org/2000/svg" viewBox="0 0 34 34" id="figure">
      <path d="M18.412.544c1.298-.98 2.851-.53 3.523.614l.058.098a2.342 2.342 0 002.61 1.081c1.573-.41 2.836.6 3.019 1.915l.016.113a2.342 2.342 0 001.997 1.997c1.611.224 2.39 1.641 2.057 2.925l-.029.11a2.342 2.342 0 001.08 2.61c1.404.824 1.582 2.431.782 3.49l-.069.09a2.342 2.342 0 000 2.825c.98 1.298.53 2.851-.614 3.523l-.098.058a2.342 2.342 0 00-1.081 2.61c.41 1.573-.6 2.836-1.915 3.019l-.113.016a2.342 2.342 0 00-1.997 1.997c-.224 1.611-1.641 2.39-2.925 2.057l-.11-.029a2.342 2.342 0 00-2.61 1.08c-.824 1.404-2.431 1.582-3.49.782l-.09-.069a2.342 2.342 0 00-2.825 0c-1.298.98-2.851.53-3.523-.614l-.058-.098a2.342 2.342 0 00-2.61-1.081c-1.574.41-2.836-.6-3.019-1.915l-.016-.113a2.342 2.342 0 00-1.997-1.997c-1.611-.224-2.39-1.641-2.057-2.925l.029-.11a2.342 2.342 0 00-1.08-2.61c-1.404-.824-1.582-2.431-.782-3.49l.069-.09a2.342 2.342 0 000-2.825c-.98-1.298-.53-2.851.614-3.523l.098-.058a2.342 2.342 0 001.081-2.61c-.41-1.574.6-2.836 1.915-3.019l.113-.016a2.342 2.342 0 001.997-1.997c.224-1.611 1.641-2.39 2.925-2.057l.11.029a2.342 2.342 0 002.61-1.08c.824-1.404 2.431-1.582 3.49-.782l.09.069a2.342 2.342 0 002.825 0z"></path>
    </symbol>
    <symbol fill="currentColor" xmlns="http://www.w3.org/2000/svg" viewBox="0 0 17 17" id="phone">
      <path d="M13.435 10.531c-.348-.362-.768-.556-1.213-.556-.441 0-.865.19-1.227.552l-1.134 1.13c-.093-.05-.186-.096-.276-.143a4.105 4.105 0 01-.355-.19c-1.062-.675-2.028-1.554-2.953-2.691-.449-.567-.75-1.044-.969-1.529.294-.269.567-.548.832-.818l.302-.305c.753-.753.753-1.729 0-2.482l-.98-.98c-.111-.111-.226-.226-.333-.34a16.945 16.945 0 00-.675-.668C4.106 1.166 3.69.983 3.252.983c-.438 0-.861.183-1.22.528l-.007.007-1.22 1.23a2.625 2.625 0 00-.779 1.67C-.06 5.464.25 6.44.486 7.078c.581 1.568 1.45 3.021 2.745 4.579a16.885 16.885 0 005.622 4.402c.825.391 1.927.854 3.157.933.076.004.155.007.226.007.83 0 1.525-.298 2.07-.89.004-.007.011-.01.015-.018.187-.226.402-.43.628-.65.154-.146.312-.3.466-.462.356-.37.542-.8.542-1.241 0-.445-.19-.872-.553-1.231l-1.97-1.977zm1.284 3.778c-.003 0-.003.004 0 0-.14.15-.283.287-.438.438a9.46 9.46 0 00-.692.717c-.362.388-.79.57-1.35.57-.053 0-.11 0-.164-.003-1.066-.068-2.056-.484-2.799-.84a15.939 15.939 0 01-5.296-4.147C2.757 9.57 1.94 8.206 1.397 6.742 1.063 5.85.941 5.152.995 4.496c.036-.42.198-.768.495-1.066l1.224-1.223c.176-.165.362-.255.545-.255.226 0 .41.136.524.251l.01.011c.22.205.428.416.647.642.11.115.226.23.34.348l.98.98c.38.38.38.732 0 1.112-.104.104-.204.208-.309.309a18.73 18.73 0 01-.9.875c-.007.007-.014.01-.018.018-.309.309-.251.61-.187.815l.011.032c.255.617.614 1.198 1.16 1.89l.003.004c.99 1.22 2.034 2.171 3.186 2.9.147.093.298.168.441.24.13.064.251.125.355.19.015.007.029.018.043.025a.78.78 0 00.356.09c.297 0 .484-.187.545-.248l1.227-1.227c.122-.122.316-.269.542-.269.222 0 .405.14.517.262a.479.479 0 01.007.007l1.977 1.977c.37.366.37.743.003 1.123zM9.186 4.044a4.55 4.55 0 012.476 1.284 4.574 4.574 0 011.284 2.476c.04.237.244.402.477.402.029 0 .054-.004.083-.007a.485.485 0 00.398-.56 5.535 5.535 0 00-1.554-2.996A5.534 5.534 0 009.354 3.09a.487.487 0 00-.56.395.48.48 0 00.392.56zM16.98 7.5a9.105 9.105 0 00-2.558-4.934A9.105 9.105 0 009.488.007a.483.483 0 10-.157.955 8.152 8.152 0 014.41 2.285 8.128 8.128 0 012.285 4.41c.04.237.244.402.477.402.029 0 .054-.004.082-.007a.475.475 0 00.395-.553z"></path>
    </symbol>
    <symbol fill="currentColor" xmlns="http://www.w3.org/2000/svg" viewBox="0 0 15 15" id="paper-clip">
      <path d="M13.729 1.571a4.229 4.229 0 00-5.916.001L.919 8.466a3.23 3.23 0 004.567 4.567L11.73 6.79a2.078 2.078 0 10-2.94-2.94L2.82 9.824a.543.543 0 00.768.767l5.97-5.97a.993.993 0 011.404 1.403L4.72 12.266a2.144 2.144 0 01-3.032-3.032L8.58 2.34a3.145 3.145 0 014.448 4.446L6.135 13.68a.543.543 0 10.765.765l6.894-6.893a4.229 4.229 0 00-.065-5.98z"></path>
    </symbol>
    <symbol fill="currentColor" xmlns="http://www.w3.org/2000/svg" viewBox="0 0 15 15" id="box">
      <path d="M4.402 11.015l-1.875-.796a.469.469 0 00-.366.862l1.875.797a.466.466 0 00.614-.248.467.467 0 00-.248-.615z"></path>
      <path d="M14.993 3.261a.478.478 0 00-.023-.143c-.01-.028-.03-.046-.044-.07-.01-.018-.018-.033-.03-.048a.45.45 0 00-.194-.15l-.007-.005-7.5-2.812a.458.458 0 00-.348.007L.284 2.85c-.006.003-.01.01-.016.013a.454.454 0 00-.164.138.489.489 0 00-.036.05c-.009.017-.023.028-.03.046A.47.47 0 000 3.282v8.438a.47.47 0 00.284.431l6.563 2.813a.466.466 0 00.35.007l.016-.006h.001l7.482-2.806A.468.468 0 0015 11.72V3.283c0-.009-.007-.014-.007-.022zm-8.43 10.56l-5.625-2.41V3.994l5.625 2.41v7.417zm.48-8.231L1.659 3.283 7.043.976l6.153 2.307-1.467.55L9.1 2.654a.46.46 0 00-.412.016l-1.839.781a.471.471 0 00.005.868l1.705.704-1.515.567zm3.27-.225l.937-.352v2.285l-.938.351V5.365zm-.467-.826l-1.604-.661.664-.282 1.575.705-.635.238zm4.216 6.856L7.5 13.855V6.42l1.875-.703v2.61a.471.471 0 00.634.44l1.875-.704a.47.47 0 00.303-.439V4.662l1.876-.703v7.436z"></path>
    </symbol>
    <symbol fill="currentColor" xmlns="http://www.w3.org/2000/svg" viewBox="0 0 15 15" id="shopping-bag">
      <path d="M12.774 4.412H11.03v-2.06A2.356 2.356 0 008.676 0H8.53c-.37 0-.719.086-1.03.238a2.356 2.356 0 00-3.382 2.115v2.059H2.226L1.745 15h11.51l-.48-10.588zM8.657.847c.811 0 1.49.695 1.49 1.506v2.059H8.823v-2.06c0-.548-.19-1.053-.506-1.454 0 0 .05-.051.34-.051zM7.5 1.304c.272.267.441.639.441 1.049v2.059H7.06v-2.06c0-.41.169-.78.44-1.048zM5 2.353A1.472 1.472 0 016.682.898a2.34 2.34 0 00-.506 1.455v2.059H5v-2.06zM3.069 5.294h1.049v8.824h-1.45l.4-8.824zm1.93 8.824V5.294h1.177v.882h.883v-.882h3.088v.882h.882v-.882h.902l.401 8.824H5z"></path>
    </symbol>
    <symbol fill="currentColor" xmlns="http://www.w3.org/2000/svg" viewBox="0 0 29 20" id="dish">
      <path d="M27.3 15.996c0-6.279-4.905-11.428-10.925-12.323A2.268 2.268 0 0014.5.136a2.268 2.268 0 00-2.266 2.266c0 .47.145.909.391 1.271C6.628 4.564 1.7 9.696 1.7 15.996a1.699 1.699 0 100 3.399h25.602a1.699 1.699 0 100-3.399zM13.368 2.402a1.134 1.134 0 012.266 0 1.134 1.134 0 01-2.266 0zM14.5 4.668c6.238 0 11.668 5.046 11.668 11.328H2.832c0-6.14 5.343-11.328 11.668-11.328zm12.8 13.594H1.7a.567.567 0 010-1.133h25.6a.567.567 0 010 1.133z"></path>
    </symbol>
    <symbol fill="currentColor" xmlns="http://www.w3.org/2000/svg" viewBox="0 0 21 21" id="wall-clock">
      <path d="M18.802 15.614a.82.82 0 00-1.148.168c-.149.2-.308.396-.473.583a.82.82 0 001.229 1.087c.196-.221.384-.454.56-.69a.82.82 0 00-.168-1.148zm1.372-3.847a.82.82 0 00-.976.627 8.843 8.843 0 01-.191.725.82.82 0 101.567.484c.088-.282.164-.571.227-.86a.82.82 0 00-.627-.976zm-5.321 6.474a8.88 8.88 0 01-.67.338.82.82 0 00.675 1.495c.27-.122.537-.256.795-.4a.82.82 0 10-.8-1.433zM9.68 3.938v6.222l-3.01 3.008a.82.82 0 001.16 1.16l3.249-3.248a.82.82 0 00.24-.58V3.937a.82.82 0 00-1.64 0z"></path>
      <path d="M20.18 1.764a.82.82 0 00-.82.82v2.278A10.525 10.525 0 0010.5 0a10.432 10.432 0 00-7.425 3.075A10.432 10.432 0 000 10.5c0 2.805 1.092 5.441 3.075 7.425A10.431 10.431 0 0010.5 21l.02-.001.021.001c.296 0 .594-.012.887-.037a.82.82 0 00-.136-1.635c-.248.02-.5.031-.751.031l-.02.001H10.5c-4.885 0-8.86-3.975-8.86-8.86s3.975-8.86 8.86-8.86a8.88 8.88 0 017.626 4.348h-2.255a.82.82 0 000 1.64h2.504a2.61 2.61 0 001.439-.43A2.624 2.624 0 0021 5.004v-2.42a.82.82 0 00-.82-.82z"></path>
    </symbol>
    <symbol fill="currentColor" xmlns="http://www.w3.org/2000/svg" viewBox="0 0 17 17" id="bell-covering-hot-dish">
      <path d="M12.58 4.348c.407-.517.477-1.17.206-1.885a3.42 3.42 0 00-.51-.893.281.281 0 00-.432.36c.013.017.977 1.201.294 2.071-.982 1.253.065 2.905.11 2.975a.28.28 0 10.473-.305c-.01-.014-.875-1.387-.14-2.323zm1.889 0c.405-.517.476-1.17.205-1.885a3.42 3.42 0 00-.511-.893.281.281 0 00-.432.36c.01.012.979 1.2.295 2.071-.983 1.253.065 2.905.11 2.975a.28.28 0 10.472-.305c-.008-.014-.874-1.387-.14-2.323zm-11.806.13c.406-.517.477-1.169.205-1.884a3.422 3.422 0 00-.51-.893.281.281 0 00-.432.36c.01.012.979 1.199.295 2.07-.983 1.253.065 2.906.11 2.975a.28.28 0 10.472-.305c-.009-.013-.874-1.386-.14-2.323zm1.887 0c.406-.517.477-1.169.205-1.884a3.42 3.42 0 00-.51-.893.281.281 0 00-.432.36c.01.012.978 1.199.295 2.07-.983 1.253.065 2.906.11 2.975a.28.28 0 10.472-.305c-.009-.013-.874-1.386-.14-2.323z"></path>
      <path d="M16.067 13.312h-.597a6.974 6.974 0 00-6.35-6.656V6.37c.352-.21.57-.588.57-1.007 0-.649-.528-1.177-1.177-1.177h-.026c-.649 0-1.177.528-1.177 1.177 0 .42.219.797.57 1.007v.286a6.974 6.974 0 00-6.35 6.656H.933a.934.934 0 00-.933.933v.352c0 .514.419.933.933.933h15.134a.934.934 0 00.933-.933v-.352a.934.934 0 00-.933-.933zM7.872 5.363c0-.339.276-.615.615-.615h.026c.339 0 .615.276.615.615a.611.611 0 01-.392.571.281.281 0 00-.179.262v.434h-.115v-.434a.28.28 0 00-.178-.262.611.611 0 01-.392-.57zm8.195 9.605H.933a.372.372 0 01-.37-.372v-.351a.37.37 0 01.37-.37H11.5a.281.281 0 100-.563H2.093a6.409 6.409 0 016.368-6.12h.078a6.409 6.409 0 016.368 6.12h-1.59a.281.281 0 100 .563h2.75a.37.37 0 01.37.37v.351a.372.372 0 01-.37.372z"></path>
    </symbol>
    <symbol fill="currentColor" xmlns="http://www.w3.org/2000/svg" viewBox="0 0 15 15" id="cupcake">
      <path d="M12.427 5.67a1.674 1.674 0 00-1.832-2.424c-.493-.442-1.445-.756-2.183-.946a.883.883 0 01-.648-.667.87.87 0 01.282-.871c.02-.018.03-.025.03-.025a.235.235 0 000-.412 2.71 2.71 0 00-1.65-.3 2.665 2.665 0 00-1.534.762 2.708 2.708 0 00-.736 2.425 1.67 1.67 0 00-1.774 1.555 1.67 1.67 0 00.191.902A2.157 2.157 0 001.31 7.78a2.134 2.134 0 00.785 1.507l.708 5.004a.235.235 0 00.18.196C4.46 14.829 5.98 15 7.5 15c1.52 0 3.04-.171 4.518-.514a.235.235 0 00.18-.196l.707-5.004a2.134 2.134 0 00.785-1.507 2.157 2.157 0 00-1.263-2.11zM2.614 9.6a2.123 2.123 0 00.82.17l.44 4.423c-.21-.04-.42-.083-.629-.13L2.614 9.6zm7.809-.151c.208.129.437.22.675.272l-.453 4.556c-.22.036-.44.068-.662.096l.32-4.819.12-.105zm-.915 4.978a19.82 19.82 0 01-.653.057l.138-4.162c.285-.105.557-.24.815-.402l-.3 4.507zm-1.124.083c-.216.01-.433.016-.65.019v-3.95c.267-.014.53-.052.784-.114l-.134 4.045zm-1.119.019a19.794 19.794 0 01-.65-.019l-.133-4.045c.255.062.517.1.783.114v3.95zm-1.258-4.207l.138 4.162a19.552 19.552 0 01-.653-.057l-.3-4.507c.258.163.53.297.815.402zm-1.31-.768l.32 4.819a18.84 18.84 0 01-.662-.096l-.453-4.556c.238-.052.467-.143.675-.272l.12.105zm7.058 4.51c-.209.046-.419.089-.63.129l.44-4.423c.028 0 .056 0 .084-.002a2.14 2.14 0 00.738-.168l-.632 4.464zm1.466-6.318c-.028.407-.206.79-.502 1.078a1.67 1.67 0 01-2.179.136.235.235 0 00-.309.021A3.83 3.83 0 017.5 10.116 3.83 3.83 0 014.769 8.98a.235.235 0 00-.309-.021 1.67 1.67 0 01-2.179-.136 1.665 1.665 0 01-.502-1.078 1.682 1.682 0 011.209-1.73.247.247 0 00.134-.088.235.235 0 00-.007-.287 1.204 1.204 0 01-.265-.843 1.215 1.215 0 011.064-1.112l.012-.001a.985.985 0 01.624.152c.225.142.621.362 1.169.555a7.123 7.123 0 002.366.395c.419 0 .87-.035 1.35-.118A.242.242 0 009.64 4.4a.235.235 0 00-.273-.197c-1.518.267-2.725.013-3.471-.248a5.18 5.18 0 01-1.218-.599 2.233 2.233 0 01.547-2.238A2.235 2.235 0 017.551.603a1.33 1.33 0 00-.245 1.137c.117.498.495.887.99 1.014 1.015.262 1.762.593 2.052.907a.24.24 0 00.246.07 1.21 1.21 0 01.445-.05c.593.044 1.047.526 1.11 1.117.106.97-1.95 3.054-6.247 2.06a.235.235 0 00-.283.182.241.241 0 00.186.277 9.879 9.879 0 002.22.269c1.21 0 2.107-.265 2.717-.545.76-.348 1.208-.77 1.402-.98a1.684 1.684 0 011.078 1.685z"></path>
    </symbol>
    <symbol fill="currentColor" xmlns="http://www.w3.org/2000/svg" viewBox="0 0 18 16" id="nuggets">
      <path d="M14.15 9.18c-.096-.28-.142-.419-.142-.52 0-.103.046-.242.142-.522.072-.21.18-.525-.051-.832a20.72 20.72 0 00-.199-.261c-.238-.312-.238-.312-.314-.667a1.082 1.082 0 01-.005-.02c.065-.02.13-.041.196-.069a2.1 2.1 0 00.364-.205c.06-.04.12-.082.18-.125.05-.036.098-.077.155-.101a.4.4 0 01.326.015c.114.064.217.152.326.224.11.073.224.141.346.193.186.078.371.114.55.148.08.015.156.03.228.047.068.017.085.04.098.098l.063.29c.104.49.125.533.445.951l.194.255c0 .035-.03.123-.05.182-.242.7-.242.798-.001 1.499.02.059.05.147.051.182l-.192.252c-.28.364-.331.445-.409.778H13.58l.007-.032c.075-.355.075-.355.314-.666l.198-.261c.232-.308.124-.624.052-.833zm3.787 1.943a.352.352 0 00-.289-.15h-.464c.04-.098.098-.175.234-.35l.196-.26c.232-.306.124-.622.052-.831-.096-.28-.142-.42-.142-.522 0-.102.046-.241.142-.521.072-.21.18-.525-.051-.831l-.199-.262c-.24-.312-.24-.312-.315-.669l-.065-.298a.8.8 0 00-.615-.626c-.09-.022-.18-.04-.265-.056-.104-.02-.209-.039-.31-.07a1.123 1.123 0 01-.27-.128c-.17-.105-.323-.246-.506-.328-.292-.131-.687-.126-.965.039-.204.12-.382.288-.601.381a1.328 1.328 0 01-.175.057.82.82 0 00-.424-.246 5.183 5.183 0 00-.262-.055 2.124 2.124 0 01-.411-.106 2.081 2.081 0 01-.36-.22c-.073-.051-.147-.104-.226-.153-.291-.183-.783-.183-1.073 0-.08.05-.154.102-.226.152-.125.088-.242.17-.36.22-.119.05-.261.078-.411.107a5.153 5.153 0 00-.262.055.795.795 0 00-.615.622.806.806 0 00-.633.11l-.258.165c-.305.198-.305.198-.695.25L6.8 6.64a4.724 4.724 0 00-.048-.248c-.077-.334-.424-.682-.76-.759a5.806 5.806 0 00-.264-.051 2.083 2.083 0 01-.412-.1 2.067 2.067 0 01-.369-.217 5.783 5.783 0 00-.223-.146.802.802 0 00-.876.009c-.104.065-.189.12-.26.167-.304.197-.304.197-.694.249-.09.011-.196.025-.323.044-.382.052-.529.352-.627.552-.13.265-.195.396-.267.469-.072.071-.203.137-.47.267-.198.097-.497.244-.552.625l-.044.325c-.052.39-.052.39-.25.695l-.165.258a.8.8 0 00-.009.876 4.7 4.7 0 00.148.227c.086.126.167.245.215.364.048.119.073.26.1.41a5.003 5.003 0 00.064.315H.352a.352.352 0 00-.33.474l1.406 3.795c.051.138.183.23.33.23h14.484a.352.352 0 00.33-.23l1.406-3.795a.352.352 0 00-.041-.323zM9.385 6.23c.013-.062.032-.08.096-.096.072-.018.148-.032.228-.048.179-.034.364-.07.552-.15.187-.078.34-.187.49-.291.067-.048.131-.092.195-.132a.467.467 0 01.327 0c.063.04.127.084.194.132.15.104.304.213.491.292.187.079.372.115.552.15.08.014.155.03.228.047.063.015.082.034.096.097l.064.293c.104.486.125.53.444.948l.194.254a.964.964 0 01-.05.183c-.241.7-.241.798 0 1.498.018.056.05.147.05.183-.076.102-.14.185-.194.255-.32.416-.34.46-.444.947a45.97 45.97 0 01-.039.179h-1.865a.75.75 0 00.023-.102l.044-.325c.05-.39.05-.39.25-.695l.165-.258a.794.794 0 00.008-.875 4.908 4.908 0 00-.15-.232 2.028 2.028 0 01-.213-.36 2.096 2.096 0 01-.1-.413 4.878 4.878 0 00-.05-.265c-.078-.335-.426-.683-.758-.758a4.968 4.968 0 00-.27-.052 2.1 2.1 0 01-.409-.1 1.303 1.303 0 01-.195-.102l.046-.204zM6.797 9.816c.019-.129.033-.235.045-.325.051-.39.051-.39.249-.694l.165-.259a.8.8 0 00.009-.878 5.176 5.176 0 00-.145-.222 7.79 7.79 0 01-.08-.12l.166-.022c.52-.07.567-.086.985-.357l.251-.161c.053-.034.083-.034.137-.002.063.038.125.081.192.126.152.104.31.21.5.287a2.6 2.6 0 00.55.14c.082.015.159.028.234.046a.465.465 0 01.23.23c.017.072.03.147.044.228.031.18.064.366.14.556.076.187.181.342.283.492.047.068.09.133.13.2.034.054.034.082 0 .135l-.162.251c-.271.419-.288.465-.356.986l-.043.317c-.025.025-.112.067-.165.093a8.969 8.969 0 00-.22.11H5.61c.068-.135.116-.215.166-.265.072-.072.203-.138.468-.267.186-.09.498-.241.553-.625zM.79 9.156l.161-.252c.271-.418.288-.464.357-.985l.043-.317a.941.941 0 01.165-.093c.667-.326.736-.395 1.06-1.06a.957.957 0 01.092-.164l.318-.043c.521-.07.568-.086.985-.357.069-.045.151-.098.252-.161.054-.035.083-.035.137-.002.063.038.126.081.192.126.153.104.31.21.5.287.188.077.375.11.555.14.08.015.156.028.228.044a.47.47 0 01.232.232c.016.072.03.148.044.228.031.18.064.367.14.555.077.19.184.347.287.5.045.066.088.129.125.19.034.056.034.084 0 .138l-.163.253c-.27.417-.286.463-.355.984-.012.086-.025.19-.044.317a.875.875 0 01-.165.092c-.665.325-.734.395-1.059 1.06l-.053.104h-3.26a.474.474 0 01-.177-.205 3.994 3.994 0 01-.045-.232 2.659 2.659 0 00-.14-.552 2.64 2.64 0 00-.285-.495 4.488 4.488 0 01-.128-.195c-.033-.055-.033-.084.001-.138zm15.78 4.066H7.413a.352.352 0 000 .703h8.897l-.312.843H2.002l-.312-.843h2.565a.352.352 0 000-.703H1.43l-.573-1.547h16.286l-.573 1.547z"></path>
      <path d="M4.113 7.658h.002a.35.35 0 10-.002-.703.352.352 0 000 .703zm.001.879a.352.352 0 000 .703h.002a.35.35 0 10-.002-.703zm4.67.117h.002a.35.35 0 10-.002-.704.352.352 0 000 .704zm-.533 1.499h.001a.351.351 0 10-.001 0zm4.032-1.922h.002a.35.35 0 10-.002-.703.352.352 0 000 .703zm-9.648 1.932h.002a.35.35 0 10-.002-.703.352.352 0 000 .703zM15.37 8.027h.001a.35.35 0 10-.002-.703.352.352 0 000 .703zm-.244 1.889a.35.35 0 00.351.351h.002a.351.351 0 10-.353-.351zm-9.291 4.009h.001a.351.351 0 10-.001 0zM11.11 1.966l-.002.003c-.251.3-.3.637-.295.87-.007.329.1.639.298.873l.002.002a.35.35 0 10.544-.446l-.01-.01a.606.606 0 01-.131-.428.598.598 0 01.143-.424l.002-.003a1.31 1.31 0 00.295-.87 1.305 1.305 0 00-.294-.869l-.003-.003a.352.352 0 10-.538.453.614.614 0 01.131.428.614.614 0 01-.141.424zm-2.319-.425a.604.604 0 01-.132.412l-.013.016c-.25.3-.299.637-.294.87-.006.329.099.639.297.873l.002.002a.35.35 0 10.544-.446l-.009-.01a.607.607 0 01-.131-.428.599.599 0 01.131-.411l.008-.01.002-.002c.198-.234.304-.544.299-.874A1.31 1.31 0 009.196.66L9.194.657a.352.352 0 00-.543.447l.008.01a.612.612 0 01.132.427zm-2.602.425l-.003.003c-.251.3-.3.637-.295.87-.006.329.1.639.298.873l.002.002a.35.35 0 10.544-.446l-.01-.01a.606.606 0 01-.131-.428.597.597 0 01.143-.424l.003-.003c.25-.301.298-.637.294-.87A1.306 1.306 0 006.74.664L6.737.661a.352.352 0 10-.538.453.6.6 0 01.132.428.614.614 0 01-.142.424z"></path>
    </symbol>
    <symbol fill="currentColor" xmlns="http://www.w3.org/2000/svg" viewBox="0 0 17 17" id="recipe-book">
      <path d="M14.547 0h-11.5c-.838 0-1.52.682-1.52 1.52v13.96c0 .838.682 1.52 1.52 1.52h11.5c.51 0 .926-.415.926-.926V.926A.927.927 0 0014.547 0zM2.19 15.48c0-.472.384-.856.856-.856H13.48v1.712H3.047a.857.857 0 01-.856-.856zm12.618.594a.262.262 0 01-.262.262h-.402v-1.712h.402c.09 0 .178-.013.262-.038v1.488zm0-2.376a.262.262 0 01-.262.262H3.52V8.806a.332.332 0 10-.664 0v5.166c-.244.031-.47.12-.665.252V1.52c0-.406.285-.747.665-.834v5.132a.332.332 0 10.664 0V.664h11.027c.144 0 .262.118.262.262v12.772z"></path>
      <path d="M11.518 3.581a1.96 1.96 0 00-.728.14 1.964 1.964 0 00-3.252 0 1.961 1.961 0 00-2.69 1.822c0 .831.51 1.552 1.267 1.836v3.875c0 .283.23.513.514.513h5.07c.284 0 .514-.23.514-.513V7.379a1.95 1.95 0 001.267-1.836c0-1.082-.88-1.962-1.962-1.962zM6.78 11.103v-.664h4.77v.664H6.78zm5.028-4.294a.332.332 0 00-.258.324v2.642H6.78V7.133a.332.332 0 00-.258-.324 1.3 1.3 0 11.976-2.367.332.332 0 00.48-.147 1.3 1.3 0 012.375 0 .332.332 0 00.48.147 1.3 1.3 0 11.976 2.367zm-8.62.171a.332.332 0 10.332.332.332.332 0 00-.333-.332z"></path>
    </symbol>
    <symbol fill="currentColor" xmlns="http://www.w3.org/2000/svg" viewBox="0 0 21 16" id="salad">
      <path d="M20.223 4.366a1.604 1.604 0 00-1.125-1.12 3.857 3.857 0 00-1.252-.142c.509-.606.81-1.206.625-1.681-.193-.493-.524-.778-.91-.783h-.01c-.4 0-.762.296-.971.794l-.032.08a4.517 4.517 0 00-.232-.6 1.6 1.6 0 00-1.299-.91.673.673 0 00-.64.311c-.163.288-.083.682.239 1.172.441.624.696 1.36.735 2.123-.37-.27-.775-.472-1.275-.429a2.103 2.103 0 00-.839.28c.162-.342.231-.72.2-1.098a1.808 1.808 0 00-2.18-1.566c-.476.12-.898.397-1.197.786a1.008 1.008 0 00-.657.04c-.102.04-.2.094-.29.158a1.03 1.03 0 10-1.366 1.528c-.061.18-.082.372-.06.56a2.7 2.7 0 00-1.193-.504c-.063-.473-.336-.94-.721-1.097a1.612 1.612 0 00-.703-.92 1.038 1.038 0 00-.671-.146A2.258 2.258 0 003.303.196 1.79 1.79 0 001.78.263a1.79 1.79 0 00-.967 1.179 2.258 2.258 0 00.148 1.48 1.036 1.036 0 00-.286.62C.64 3.941.75 4.34.99 4.66c-.104.388.098.85.37 1.156.282.317.619.472.928.44.113.15.253.278.413.377h-.01a.29.29 0 00-.288.314c.15 1.765.87 4.851 3.973 6.327a3.235 3.235 0 00-.835 2.102.29.29 0 00.29.289h9.251a.288.288 0 00.29-.29 3.234 3.234 0 00-.835-2.1c3.102-1.477 3.824-4.563 3.973-6.328a.29.29 0 00-.289-.314h-1.19c.319-.928.025-1.498-.43-1.962.678-.11 1.425.003 2.23.35.23.108.479.17.733.181a.705.705 0 00.464-.15.668.668 0 00.195-.686zm-3.34-2.065c.087-.258.162-.481.23-.643.128-.304.312-.44.438-.44h.002c.137.002.278.157.379.415.12.31-.347 1.084-1.623 2.17.219-.49.41-.991.574-1.502zM14.879.6a.277.277 0 01.193-.01 1.055 1.055 0 01.72.566c.254.503.362 1.068.31 1.63-.059.16-.122.321-.19.484a4.803 4.803 0 00-.813-2.101c-.245-.373-.235-.545-.22-.57zM9.614 2.16a.394.394 0 01.389.027.29.29 0 00.419-.104c.214-.36.562-.62.968-.724a1.23 1.23 0 011.472 1.057c.03.417-.105.829-.377 1.146a.287.287 0 00.023.419 11.02 11.02 0 00-1.16 1.192.284.284 0 00-.188-.058c-.009 0-.55.033-1.084.125l.625-.871c.282-.095.58-.138.877-.127a.29.29 0 00.074-.573 2.178 2.178 0 00-.454.007l.557-.776a.287.287 0 00.01-.321.29.29 0 00-.48-.016l-.558.778a2.217 2.217 0 00-.138-.434.289.289 0 10-.52.254c.106.278.161.574.161.873l-.624.87a11.208 11.208 0 00-.23-1.068.29.29 0 00-.556.155c.107.388.292 1.26.265 1.639l-.6.838a3.227 3.227 0 00-.116-.821c-.111-.488-.215-.95.036-1.302a.289.289 0 00-.066-.403c-.117-.084-.094-.325-.023-.513.113-.3.333-.496.46-.482a.286.286 0 00.31-.223.77.77 0 01.179-.31l.007-.008a.94.94 0 01.342-.246zm-.536 4.472l.48-.667a5.938 5.938 0 011.343-.25c-.23.287-.463.595-.7.917H9.079zM8.353 2.02a.455.455 0 01.355.171 1.355 1.355 0 00-.114.197 1.07 1.07 0 00-.57.4.454.454 0 01.33-.768zM7.69 4.654c-.027.378.012.757.115 1.121a2.3 2.3 0 01.097.745.818.818 0 00-.009.112h-.828l-.302-.302h.609a.29.29 0 000-.578h-.61l.431-.43a.29.29 0 00-.408-.41l-.431.431v-.608a.29.29 0 10-.578 0v.609l-.431-.43a.29.29 0 00-.409.408l.43.43h-.608a.29.29 0 100 .58h.609l-.302.301H4.012a2.136 2.136 0 013.677-1.98zm-5.177.993a.29.29 0 00-.22.016c-.142.071-.352-.065-.499-.23-.229-.257-.3-.555-.223-.672a.289.289 0 00-.051-.378 1.003 1.003 0 01-.268-.774.421.421 0 01.221-.353.289.289 0 00.103-.42 1.663 1.663 0 01-.202-1.25A1.212 1.212 0 012.04.78 1.212 1.212 0 013.083.73c.402.176.718.503.88.91a.289.289 0 00.397.17.425.425 0 01.417.036 1 1 0 01.456.678.29.29 0 00.271.269c.148.009.329.253.398.544a2.702 2.702 0 00-1.76.786l-.07.076-.256-.515c.05-.31.155-.61.312-.882a.29.29 0 00-.473-.332c-.09.14-.164.29-.222.446l-.46-.915a.29.29 0 00-.517.258l.458.916a2.365 2.365 0 00-.49-.09h-.008a.29.29 0 00-.009.579c.312.038.614.132.892.278l.391.783a2.56 2.56 0 00-.09.177 11.723 11.723 0 00-.91-.248.29.29 0 10-.12.566c.14.03.491.117.846.229a2.72 2.72 0 00-.052.862 1.115 1.115 0 01-.683-.52.29.29 0 00-.168-.145zm3.626 9.44c.102-.785.587-1.417.84-1.577h6.956c.254.16.739.793.84 1.576H6.138zm7.74-2.155H7.035c-3.005-1.194-3.819-3.97-4.024-5.72h14.89c-.204 1.75-1.018 4.526-4.023 5.72zM10.92 6.633c.252-.334.5-.65.743-.938 1.05-1.252 1.854-1.885 2.462-1.938.478-.04.85.274 1.322.672l.082.069.012.01.15.126.073.06.007.006.044.037a.266.266 0 00.023.02c.63.53.986.92.577 1.876H10.92zm8.74-2.028c-.023.02-.19.06-.6-.116a4.824 4.824 0 00-2.159-.434 13.2 13.2 0 00.245-.222 2.952 2.952 0 011.803-.028 1.059 1.059 0 01.686.61c.03.058.039.126.024.19z"></path>
      <path d="M16.238 9.498a5.351 5.351 0 01-.742 1.126.288.288 0 00.127.463.29.29 0 00.31-.085 5.91 5.91 0 00.822-1.248.289.289 0 10-.518-.256z"></path>
    </symbol>
  </svg>