<svg width="39" height="39" viewBox="0 0 39 39" fill="none" xmlns="http://www.w3.org/2000/svg">
<path d="M36.9332 16.3921C37.5539 15.7583 37.9082 14.9059 37.9082 13.9903C37.9082 12.4707 36.9222 11.1728 35.5424 10.7206C35.7775 10.2213 35.9022 9.67202 35.9022 9.11531C35.9022 7.03607 34.2109 5.34481 32.1317 5.34481C32.0159 5.34481 31.9002 5.35017 31.785 5.36088C31.6422 4.66968 31.298 4.03591 30.7838 3.53157C30.1096 2.86983 29.2175 2.50534 28.2722 2.50534C27.9312 2.50534 27.5908 2.55473 27.2638 2.65054C26.7181 1.24761 25.3551 0.285644 23.8037 0.285644C23.0509 0.285644 22.3278 0.510886 21.7155 0.92864C21.1219 0.338905 20.3149 0 19.4619 0C18.6216 0 17.8218 0.331764 17.2297 0.908705C16.6236 0.504043 15.9104 0.285644 15.171 0.285644C13.6193 0.285644 12.2562 1.24761 11.7105 2.65054C11.3838 2.55473 11.0431 2.50534 10.7021 2.50534C9.75712 2.50534 8.86508 2.86983 8.19055 3.53157C7.67639 4.03591 7.33242 4.66968 7.1896 5.36088C7.07415 5.35017 6.95841 5.34481 6.84266 5.34481C4.76371 5.34481 3.07216 7.03607 3.07216 9.11531C3.07216 9.67202 3.19713 10.2213 3.4319 10.7206C2.05218 11.1728 1.06641 12.4707 1.06641 13.9903C1.06641 14.9059 1.42049 15.7583 2.04146 16.3921C1.33896 16.997 0.914062 17.8899 0.914062 18.8397C0.914062 20.6178 2.36073 22.0642 4.13857 22.0642C4.4861 22.0642 4.82411 22.0104 5.14487 21.905C5.29929 23.4552 6.55196 24.6862 8.1114 24.8085L8.30183 27.6959C8.34735 28.3885 8.73208 29.0122 9.33044 29.3639L12.7484 31.3726L12.6162 32.5319C11.942 32.5973 11.413 33.1671 11.413 33.8583V34.4296H11.1996C10.6771 34.4296 10.1898 34.6635 9.86275 35.0711C9.53575 35.4788 9.41316 36.0051 9.52653 36.5154L9.78063 37.658C9.95618 38.448 10.6441 38.9999 11.4537 38.9999H23.5624C23.8781 38.9999 24.1336 38.744 24.1336 38.4286C24.1336 38.1132 23.8781 37.8573 23.5624 37.8573H11.4537C11.1839 37.8573 10.9544 37.6735 10.8958 37.4101L10.642 36.2676C10.6042 36.0974 10.6453 35.9218 10.7542 35.7861C10.8631 35.6502 11.0256 35.5722 11.1999 35.5722H11.9843C12.3 35.5722 12.5555 35.3163 12.5555 35.0009V33.8583C12.5555 33.7533 12.6412 33.6679 12.746 33.6679H26.2284C26.3334 33.6679 26.4188 33.7533 26.4188 33.8583V34.4296H14.6503C14.3349 34.4296 14.079 34.6855 14.079 35.0009C14.079 35.3163 14.3349 35.5722 14.6503 35.5722H27.7747C27.9491 35.5722 28.1112 35.6502 28.2204 35.7861C28.3293 35.9218 28.3704 36.0974 28.3326 36.2676L28.0785 37.4101C28.0199 37.6735 27.7908 37.8573 27.5209 37.8573H26.2284C25.913 37.8573 25.6571 38.1132 25.6571 38.4286C25.6571 38.7443 25.913 38.9999 26.2284 38.9999H27.5209C28.3302 38.9999 29.0185 38.4483 29.194 37.658L29.4478 36.5154C29.5612 36.0051 29.4386 35.4788 29.1116 35.0711C28.7846 34.6635 28.2975 34.4296 27.7747 34.4296H27.5614V33.8583C27.5614 33.1671 27.0326 32.5973 26.3584 32.5319L26.2263 31.3726L29.6442 29.3639C30.2426 29.0122 30.6273 28.3885 30.6728 27.6959L30.8632 24.8085C32.4227 24.6865 33.6753 23.4552 33.8298 21.905C34.1505 22.0104 34.4885 22.0642 34.8361 22.0642C36.6139 22.0642 38.0606 20.6178 38.0606 18.8397C38.0606 17.8899 37.6357 16.997 36.9332 16.3921ZM9.90947 28.379C9.63751 28.2189 9.46255 27.9354 9.44173 27.6206L9.24921 24.6978C9.68006 24.577 10.0788 24.3681 10.4227 24.084L10.5867 26.7071C10.6167 27.1882 10.9051 27.6167 11.3395 27.8256L13.0578 28.6516L12.8897 30.1307L9.90947 28.379ZM25.5378 25.3232C26.1933 25.3009 26.8175 25.1152 27.3626 24.7951L27.2478 26.636C27.2433 26.7047 27.2022 26.766 27.14 26.7958L25.78 27.4495L25.5378 25.3232ZM24.3723 25.1855L25.2075 32.5253H13.7669L14.6021 25.1893C15.3248 24.9918 15.9723 24.5886 16.4689 24.0259C17.1526 24.968 18.2613 25.5556 19.4619 25.5556C20.6839 25.5556 21.8006 24.9555 22.4802 23.992C22.9798 24.5648 23.6403 24.9813 24.3723 25.1855ZM13.1947 27.4495L11.8346 26.7958C11.7724 26.766 11.7313 26.7047 11.7269 26.636L11.612 24.7954C12.1571 25.1152 12.7814 25.3009 13.4369 25.3235L13.1947 27.4495ZM29.5329 27.6206C29.5121 27.9354 29.3371 28.2189 29.0652 28.379L26.0849 30.1304L25.9165 28.6516L27.6352 27.8256C28.0696 27.6167 28.3579 27.1882 28.388 26.7071L28.5519 24.084C28.8959 24.3681 29.2946 24.577 29.7254 24.6978L29.5329 27.6206ZM34.8358 20.9219C34.363 20.9219 33.917 20.7669 33.5462 20.4735C33.354 20.3215 33.0865 20.309 32.8809 20.4423C32.6753 20.5756 32.5777 20.8252 32.6381 21.0627C32.6812 21.2317 32.703 21.4063 32.703 21.5822C32.703 22.737 31.7633 23.6769 30.6082 23.6769C29.8739 23.6769 29.2056 23.302 28.8209 22.6748C28.7132 22.4989 28.5189 22.3948 28.3136 22.4022C28.1077 22.4097 27.9217 22.5272 27.8268 22.7102C27.3546 23.6198 26.4259 24.1845 25.4033 24.1845C24.3538 24.1845 23.385 23.571 22.9351 22.6215C22.8355 22.4111 22.6176 22.2817 22.3862 22.2954C22.1538 22.3091 21.9529 22.4617 21.8779 22.6822C21.5263 23.7174 20.5554 24.413 19.4619 24.413C18.3919 24.413 17.4276 23.7376 17.0625 22.7322C16.9845 22.5174 16.7863 22.3698 16.5584 22.3567C16.5474 22.3561 16.5364 22.3558 16.5254 22.3558C16.31 22.3558 16.1115 22.4775 16.0145 22.6718C15.5486 23.6049 14.6125 24.1845 13.5714 24.1845C12.5484 24.1845 11.6198 23.6195 11.1476 22.7099C11.0526 22.5272 10.8667 22.4097 10.6611 22.4022C10.454 22.3942 10.2612 22.4989 10.1535 22.6748C9.76903 23.302 9.10074 23.6766 8.36639 23.6766C7.21132 23.6766 6.27167 22.737 6.27167 21.5819C6.27167 21.4063 6.29339 21.2314 6.33654 21.0627C6.39694 20.8252 6.29934 20.5756 6.09374 20.4423C5.88814 20.3087 5.62064 20.3215 5.42843 20.4735C5.05769 20.7669 4.61166 20.9216 4.13886 20.9216C2.99063 20.9216 2.05664 19.9876 2.05664 18.8397C2.05664 18.0372 2.52646 17.2975 3.25367 16.9551C3.4435 16.8658 3.56936 16.6792 3.58067 16.4695C3.59227 16.26 3.48783 16.0609 3.30871 15.9511C2.62019 15.5292 2.20898 14.7961 2.20898 13.99C2.20898 12.7674 3.1647 11.7596 4.38434 11.6956C4.59887 11.6843 4.789 11.5537 4.87618 11.3576C4.96366 11.1615 4.93391 10.9327 4.79882 10.7658C4.41677 10.2936 4.21504 9.7229 4.21504 9.11502C4.21504 7.66627 5.39391 6.48709 6.84296 6.48709C7.07653 6.48709 7.30981 6.51863 7.53654 6.58052C7.70614 6.62694 7.88794 6.59242 8.02868 6.48709C8.16972 6.38176 8.25422 6.21722 8.25809 6.04137C8.28576 4.72175 9.38222 3.64791 10.7021 3.64791C11.0961 3.64791 11.4731 3.73956 11.8224 3.91987C11.9828 4.00259 12.1726 4.00497 12.3348 3.92582C12.4969 3.84667 12.6124 3.69552 12.6457 3.51818C12.8748 2.30717 13.9367 1.42822 15.171 1.42822C15.8211 1.42822 16.4418 1.67191 16.9188 2.11436C17.0399 2.22683 17.2035 2.28099 17.3678 2.26373C17.532 2.24617 17.6808 2.1584 17.7754 2.02301C18.1607 1.47166 18.7912 1.14258 19.4619 1.14258C20.1441 1.14258 20.7806 1.47999 21.1647 2.04563C21.2591 2.18428 21.4096 2.27474 21.5765 2.29259C21.7438 2.31015 21.9098 2.25391 22.0315 2.13816C22.5117 1.68024 23.1413 1.42822 23.8037 1.42822C25.0382 1.42822 26.1001 2.30717 26.3289 3.51818C26.3623 3.69552 26.4777 3.84667 26.6399 3.92582C26.802 4.00467 26.9922 4.00259 27.1525 3.91987C27.5016 3.73956 27.8786 3.64791 28.2725 3.64791C29.5924 3.64791 30.6889 4.72175 30.7168 6.04137C30.7204 6.21722 30.8049 6.38176 30.946 6.48709C31.087 6.59242 31.2685 6.62694 31.4384 6.58052C31.6648 6.51863 31.8981 6.48709 32.132 6.48709C33.581 6.48709 34.7599 7.66627 34.7599 9.11502C34.7599 9.7229 34.5579 10.2936 34.1761 10.7658C34.041 10.9327 34.011 11.1615 34.0985 11.3576C34.1856 11.5537 34.3758 11.6843 34.5903 11.6956C35.8102 11.7596 36.7657 12.7674 36.7657 13.99C36.7657 14.7961 36.3547 15.5292 35.6659 15.9511C35.4868 16.0609 35.3824 16.26 35.394 16.4695C35.4053 16.6792 35.5311 16.8658 35.721 16.9551C36.4482 17.2975 36.918 18.0372 36.918 18.8397C36.918 19.9879 35.984 20.9219 34.8358 20.9219Z" fill="#6ABD18"/>
<path d="M19.4873 26.5078C18.1433 26.5078 17.0498 27.6013 17.0498 28.9453C17.0498 30.2893 18.1433 31.3828 19.4873 31.3828C20.8313 31.3828 21.9248 30.2893 21.9248 28.9453C21.9248 27.6013 20.8313 26.5078 19.4873 26.5078ZM19.4873 30.2402C18.7735 30.2402 18.1924 29.6594 18.1924 28.9453C18.1924 28.2312 18.7735 27.6504 19.4873 27.6504C20.2014 27.6504 20.7822 28.2312 20.7822 28.9453C20.7822 29.6594 20.2014 30.2402 19.4873 30.2402Z" fill="#6ABD18"/>
<path d="M13.5078 13.9395H13.127V13.3491C13.127 13.0337 12.8714 12.7778 12.5557 12.7778C12.2403 12.7778 11.9844 13.0337 11.9844 13.3491V13.9395H11.6035C10.4484 13.9395 9.50879 14.8791 9.50879 16.0342C9.50879 16.4939 9.83639 16.8786 10.2705 16.967V17.4434C10.2705 18.7035 11.2959 19.7285 12.5557 19.7285C13.8158 19.7285 14.8408 18.7035 14.8408 17.4434V16.967C15.2749 16.8786 15.6025 16.4939 15.6025 16.0342C15.6025 14.8791 14.6629 13.9395 13.5078 13.9395ZM11.6035 15.082H13.5078C13.9678 15.082 14.3525 15.4096 14.4409 15.8437H10.6707C10.7591 15.4096 11.1438 15.082 11.6035 15.082ZM12.5557 18.5859C11.9258 18.5859 11.4131 18.0733 11.4131 17.4434V16.9863H13.6982V17.4434C13.6982 18.0733 13.1859 18.5859 12.5557 18.5859Z" fill="#6ABD18"/>
<path d="M27.3711 13.9395H26.9902V13.3491C26.9902 13.0337 26.7346 12.7778 26.4189 12.7778C26.1035 12.7778 25.8477 13.0337 25.8477 13.3491V13.9395H25.4668C24.312 13.9395 23.3721 14.8791 23.3721 16.0342C23.3721 16.4939 23.6997 16.8786 24.1338 16.967V17.4434C24.1338 18.7035 25.1591 19.7285 26.4189 19.7285C27.679 19.7285 28.7041 18.7035 28.7041 17.4434V16.967C29.1382 16.8786 29.4658 16.4939 29.4658 16.0342C29.4658 14.8791 28.5262 13.9395 27.3711 13.9395ZM25.4668 15.082H27.3711C27.8311 15.082 28.2158 15.4096 28.3042 15.8437H24.534C24.6224 15.4096 25.0071 15.082 25.4668 15.082ZM26.4189 18.5859C25.789 18.5859 25.2764 18.0733 25.2764 17.4434V16.9863H27.5615V17.4434C27.5615 18.0733 27.0491 18.5859 26.4189 18.5859Z" fill="#6ABD18"/>
<path d="M20.4395 7.00781H20.0586V6.41748C20.0586 6.10208 19.803 5.84619 19.4873 5.84619C19.1719 5.84619 18.916 6.10208 18.916 6.41748V7.00781H18.5352C17.3801 7.00781 16.4404 7.94746 16.4404 9.10254C16.4404 9.56225 16.768 9.94698 17.2021 10.0353V10.5117C17.2021 11.7718 18.2275 12.7969 19.4873 12.7969C20.7474 12.7969 21.7725 11.7718 21.7725 10.5117V10.0353C22.2066 9.94698 22.5342 9.56225 22.5342 9.10254C22.5342 7.94746 21.5945 7.00781 20.4395 7.00781ZM18.5352 8.15039H20.4395C20.8995 8.15039 21.2842 8.47799 21.3726 8.91211H17.6023C17.6907 8.47799 18.0754 8.15039 18.5352 8.15039ZM19.4873 11.6543C18.8574 11.6543 18.3447 11.1416 18.3447 10.5117V10.0547H20.6299V10.5117C20.6299 11.1416 20.1175 11.6543 19.4873 11.6543Z" fill="#6ABD18"/>
</svg>
