<svg width="39" height="39" viewBox="0 0 39 39" fill="none" xmlns="http://www.w3.org/2000/svg">
<path d="M24.375 36.5625H5.48438V29.25C5.48438 28.9148 5.21016 28.6406 4.875 28.6406C4.53984 28.6406 4.26562 28.9148 4.26562 29.25V37.1719C4.26562 37.507 4.53984 37.7812 4.875 37.7812H24.375C24.7102 37.7812 24.9844 37.507 24.9844 37.1719C24.9844 36.8367 24.7102 36.5625 24.375 36.5625Z" fill="#6ABD18"/>
<path d="M31.0781 6.09375H32.2969C33.6451 6.09375 34.7344 5.00449 34.7344 3.65625C34.7344 2.30801 33.6451 1.21875 32.2969 1.21875H10.9688C9.28535 1.21875 7.92188 2.58223 7.92188 4.26562V4.5627C7.91426 5.81953 7.60195 7.06113 7.03066 8.17324C5.21777 11.8143 4.27324 15.8285 4.26562 19.9037V26.8125C4.26562 27.1477 4.53984 27.4219 4.875 27.4219C5.21016 27.4219 5.48438 27.1477 5.48438 26.8125V19.9037C5.49199 16.0189 6.39082 12.1951 8.11992 8.72168C8.78262 7.43437 9.12539 6.00996 9.14062 4.5627V4.26562C9.14062 3.25254 9.95566 2.4375 10.9688 2.4375H30.1869C29.9736 2.81074 29.8594 3.22969 29.8594 3.65625V6.54316C27.4676 10.5879 26.2031 15.2039 26.2031 19.9037V37.1719C26.2031 37.507 26.4773 37.7812 26.8125 37.7812H34.125C34.4602 37.7812 34.7344 37.507 34.7344 37.1719V26.2031C34.7344 25.868 34.4602 25.5938 34.125 25.5938C33.7898 25.5938 33.5156 25.868 33.5156 26.2031V35.5266L31.0781 32.6854V29.8594C31.0781 29.5242 30.8039 29.25 30.4688 29.25C30.1336 29.25 29.8594 29.5242 29.8594 29.8594V32.6777L27.4219 35.5266V19.9037C27.4219 16.1789 28.2598 12.4998 29.8594 9.14062V15.2344C29.8594 15.5695 30.1336 15.8438 30.4688 15.8438C30.8039 15.8438 31.0781 15.5695 31.0781 15.2344V9.14062C32.6777 12.4998 33.5156 16.1789 33.5156 19.9037V23.7656C33.5156 24.1008 33.7898 24.375 34.125 24.375C34.4602 24.375 34.7344 24.1008 34.7344 23.7656V19.9037C34.7344 15.2039 33.4699 10.5879 31.0781 6.54316V6.09375ZM30.4688 33.8432L32.7996 36.5625H28.1379L30.4688 33.8432ZM32.2969 2.4375C32.9672 2.4375 33.5156 2.98594 33.5156 3.65625C33.5156 4.32656 32.9672 4.875 32.2969 4.875H31.0781V3.65625C31.0781 2.98594 31.6266 2.4375 32.2969 2.4375Z" fill="#6ABD18"/>
<path d="M30.4688 18.2812C30.1336 18.2812 29.8594 18.5555 29.8594 18.8906V26.2031C29.8594 26.5383 30.1336 26.8125 30.4688 26.8125C30.8039 26.8125 31.0781 26.5383 31.0781 26.2031V18.8906C31.0781 18.5555 30.8039 18.2812 30.4688 18.2812Z" fill="#6ABD18"/>
<path d="M10.999 8.34082L9.78029 11.9971C9.67364 12.317 9.84884 12.6598 10.1688 12.7664C10.2297 12.7893 10.2983 12.7969 10.3592 12.7969H23.1561C23.415 12.7969 23.6512 12.6293 23.735 12.3779L24.9537 8.72168C25.0604 8.40176 24.8852 8.05898 24.5652 7.95234C24.5043 7.92949 24.4358 7.92188 24.3748 7.92188H11.5779C11.319 7.92188 11.0828 8.08945 10.999 8.34082ZM23.5293 9.14062L22.7143 11.5781H11.2047L12.0197 9.14062H23.5293Z" fill="#6ABD18"/>
<path d="M12.7969 14.0156C12.4617 14.0156 12.1875 14.2898 12.1875 14.625C12.1875 14.9602 12.4617 15.2344 12.7969 15.2344H20.1094C20.4445 15.2344 20.7188 14.9602 20.7188 14.625C20.7188 14.2898 20.4445 14.0156 20.1094 14.0156H12.7969Z" fill="#6ABD18"/>
<path d="M10.0469 26.066C10.0469 24.1617 11.0523 22.4479 12.6215 21.5033L12.1873 22.8287C12.0578 23.2324 12.2787 23.659 12.6748 23.7885C12.751 23.8113 12.8348 23.8266 12.9109 23.8266C13.2309 23.8266 13.5279 23.6209 13.6346 23.301L14.5791 20.4065C14.7086 20.0028 14.4877 19.5762 14.0916 19.4467L11.1971 18.5022C10.7934 18.3727 10.3668 18.5936 10.2373 18.9897C10.1078 19.3858 10.3287 19.8199 10.7248 19.9494L11.715 20.2694C9.76504 21.5033 8.52344 23.6666 8.52344 26.066C8.52344 26.6906 8.60723 27.3076 8.7748 27.9018C8.86621 28.2369 9.1709 28.4578 9.50605 28.4578C9.57461 28.4578 9.64316 28.4502 9.71172 28.4274C10.1154 28.3131 10.3516 27.8942 10.2373 27.4904C10.1154 27.0334 10.0469 26.5535 10.0469 26.066Z" fill="#6ABD18"/>
<path d="M19.1875 29.7984C18.1744 30.8267 16.8262 31.398 15.3865 31.398C14.541 31.398 13.726 31.1999 12.9871 30.8267L14.1602 30.6591C14.5791 30.5982 14.8685 30.2173 14.8076 29.7984C14.7467 29.3794 14.3658 29.09 13.9469 29.1509L10.9305 29.5775C10.5115 29.6384 10.2221 30.0193 10.283 30.4382L10.7096 33.4546C10.7629 33.8355 11.0904 34.1097 11.4637 34.1097C11.5018 34.1097 11.5322 34.1097 11.5703 34.1021C11.9893 34.0412 12.2787 33.6603 12.2178 33.2414L12.0502 32.0531C13.0557 32.6167 14.1982 32.9214 15.3865 32.9214C17.2375 32.9214 18.9742 32.1902 20.2768 30.8724C20.5738 30.5753 20.5662 30.0878 20.2691 29.7984C19.9721 29.5089 19.4769 29.5013 19.1875 29.7984Z" fill="#6ABD18"/>
<path d="M23.141 25.1901L22.2346 25.929C22.1737 22.8593 20.0789 20.2009 17.093 19.4315C16.6817 19.3249 16.2703 19.5686 16.1637 19.98C16.0571 20.3837 16.3008 20.8026 16.7121 20.9093C18.9821 21.4958 20.5969 23.4915 20.7035 25.8223L19.9266 24.8626C19.66 24.535 19.1801 24.4817 18.8526 24.7483C18.525 25.0149 18.4717 25.4948 18.7383 25.8223L20.6578 28.1913C20.8102 28.3741 21.0311 28.4731 21.252 28.4731C21.4196 28.4731 21.5871 28.4198 21.7319 28.3055L24.1008 26.386C24.4284 26.1194 24.4817 25.6395 24.2151 25.312C23.9485 24.9768 23.4686 24.9235 23.141 25.1901Z" fill="#6ABD18"/>
</svg>
