<svg width="69" height="69" viewBox="0 0 69 69" fill="none" xmlns="http://www.w3.org/2000/svg">
<path d="M65.9294 26.4223H54.3058C53.7823 26.4223 53.3583 26.8464 53.3583 27.3699V32.7608H46.2831V27.3699C46.2831 26.8464 45.8594 26.4223 45.3355 26.4223H33.712C33.1888 26.4223 32.7644 26.8464 32.7644 27.3699V38.5662L21.2356 50.3872H19.6769L16.606 24.5221C16.5491 24.0451 16.1456 23.6858 15.6647 23.6858H13.434V20.5573C14.9738 20.4736 17.8575 20.04 19.804 18.0691C22.5121 15.3271 22.2223 10.8052 22.2085 10.6145C22.1745 10.1395 21.7939 9.76404 21.3193 9.73601C21.2009 9.7293 19.4269 9.6381 17.4501 10.2161C16.8582 5.81149 13.1003 2.50368 12.9282 2.35404C12.5685 2.04213 12.0339 2.04608 11.6782 2.36194C11.4934 2.52579 7.15709 6.43649 7.18749 11.3812C7.21474 15.7061 10.5727 19.1983 11.5388 20.1143V23.6862H9.10751C8.62701 23.6862 8.22311 24.0451 8.16665 24.5221L7.08918 33.597C6.94586 34.8052 8.82758 35.0306 8.97129 33.8205L9.21214 31.7919H15.5609L17.7683 50.3872H7.0043L8.43118 38.3688C8.5745 37.1591 6.69515 36.9175 6.54907 38.1454L5.09613 50.3872H3.13702C2.61389 50.3872 2.18945 50.8116 2.18945 51.3347V65.8626C2.18945 66.3861 2.61389 66.8101 3.13702 66.8101H65.9294C66.4533 66.8101 66.8769 66.3861 66.8769 65.8626V56.1974C66.8769 54.9809 64.9818 54.9789 64.9818 56.1974V64.915H4.08459V52.2823H21.6356C21.8906 52.2823 22.1354 52.1793 22.3135 51.9965L34.3903 39.6129C34.5628 39.4364 34.6595 39.1987 34.6595 38.9516V28.3175H44.3879V38.9516C44.3879 39.4751 44.812 39.8991 45.3355 39.8991H54.3058C54.8298 39.8991 55.2534 39.4751 55.2534 38.9516V28.3175H64.9818V51.27C64.9818 52.4864 66.8769 52.4884 66.8769 51.27V27.3699C66.8769 26.8468 66.4533 26.4223 65.9294 26.4223ZM46.2831 34.6559H53.3583V38.004H46.2831V34.6559ZM14.8233 25.581L15.3358 29.8968H9.43639L9.94927 25.581H14.8233ZM20.3145 11.643C20.2537 12.9116 19.9303 15.2446 18.4557 16.7374C16.9802 18.2318 14.6496 18.584 13.3826 18.6598C13.4 18.2957 13.4395 17.8421 13.5228 17.3414C13.7091 16.2253 14.1585 14.6638 15.2434 13.565C16.7181 12.0718 19.0471 11.7192 20.3145 11.643ZM13.8951 12.2336C12.3972 13.7502 11.8172 15.8103 11.5996 17.3817C10.476 15.9959 9.09803 13.8039 9.08263 11.3694C9.06329 8.3111 11.2206 5.58881 12.3158 4.40474C13.3807 5.52761 15.4385 8.05328 15.6213 10.9568C15.0081 11.2869 14.4171 11.7046 13.8951 12.2336Z" fill="#6ABD18"/>
<path d="M40.7523 45.6851H36.7073C36.1842 45.6851 35.7598 46.1091 35.7598 46.6326V59.1232C35.7598 59.6471 36.1842 60.0708 36.7073 60.0708H40.7523C41.2762 60.0708 41.6998 59.6471 41.6998 59.1232V46.6326C41.6998 46.1095 41.2754 45.6851 40.7523 45.6851ZM39.8047 58.1756H37.6549V47.5802H39.8047V58.1756Z" fill="#6ABD18"/>
<path d="M50.2288 45.6851H46.1839C45.6608 45.6851 45.2363 46.1091 45.2363 46.6326V59.1232C45.2363 59.6471 45.6608 60.0708 46.1839 60.0708H50.2288C50.752 60.0708 51.1764 59.6471 51.1764 59.1232V46.6326C51.1764 46.1095 50.752 45.6851 50.2288 45.6851ZM49.2813 58.1756H47.1315V47.5802H49.2813V58.1756Z" fill="#6ABD18"/>
<path d="M59.7044 45.6851H55.6595C55.1363 45.6851 54.7119 46.1091 54.7119 46.6326V59.1232C54.7119 59.6471 55.1363 60.0708 55.6595 60.0708H59.7044C60.2276 60.0708 60.652 59.6471 60.652 59.1232V46.6326C60.652 46.1095 60.2276 45.6851 59.7044 45.6851ZM58.7569 58.1756H56.6071V47.5802H58.7569V58.1756Z" fill="#6ABD18"/>
<path d="M29.9219 58.2188H8.44366C7.92053 58.2188 7.49609 58.6428 7.49609 59.1663C7.49609 59.6899 7.92053 60.1139 8.44366 60.1139H29.9219C30.4451 60.1139 30.8695 59.6899 30.8695 59.1663C30.8695 58.6428 30.4451 58.2188 29.9219 58.2188Z" fill="#6ABD18"/>
<path d="M62.0403 6.68985C61.8725 6.76092 61.7343 6.7392 61.6254 6.6251C60.7169 3.93202 58.2315 2.12256 55.4417 2.12256C52.1114 2.12256 49.3539 4.67705 48.9512 7.96788C47.441 8.30506 46.1488 9.37187 45.5301 10.8513C44.9907 12.1384 45.9845 13.5992 47.3695 13.5992H57.5275C58.7455 13.5992 58.7641 11.7041 57.5275 11.7041H47.3695C47.2953 11.693 47.2653 11.6528 47.278 11.5825C47.7277 10.5086 48.7487 9.78998 49.8806 9.75169C50.3907 9.73431 50.7954 9.31541 50.7954 8.80451C50.7954 8.80017 50.7954 8.79503 50.7954 8.79069C50.8009 6.15763 52.8832 4.0177 55.4417 4.0177C57.4182 4.0177 59.1814 5.30876 59.8293 7.23075C60.1681 8.23281 61.0691 8.58499 62.0399 8.58499C63.6623 8.58499 64.9817 9.94712 64.9817 11.6299C64.9817 11.6678 64.9359 11.7041 64.8878 11.7041H62.8339C61.6159 11.7041 61.5977 13.5992 62.8339 13.5992H64.8882C65.9818 13.5992 66.8741 12.718 66.8769 11.635C66.8769 11.6338 66.8769 11.6223 66.8769 11.622C66.8769 8.90203 64.7069 6.68985 62.0403 6.68985Z" fill="#6ABD18"/>
<path d="M25.513 22.59H43.0316C44.1213 22.59 45.0037 21.6914 45.0203 20.6132C45.0203 17.8932 42.8503 15.6803 40.1837 15.6803C40.0167 15.7513 39.8785 15.73 39.7688 15.6159C38.8603 12.9228 36.3753 11.1138 33.5851 11.1138C30.2548 11.1138 27.4973 13.6683 27.0946 16.9591C25.5848 17.2959 24.2922 18.3631 23.6735 19.8421C23.1346 21.1292 24.1279 22.59 25.513 22.59ZM43.1251 20.6211C43.1251 20.659 43.0793 20.6949 43.0316 20.6949H25.513C25.4391 20.6842 25.4087 20.6436 25.4214 20.5737C25.8711 19.4998 26.8929 18.7812 28.0232 18.7425C28.5341 18.7251 28.9388 18.3062 28.9388 17.7953C28.9388 17.7926 28.9388 17.789 28.9388 17.7855C28.9424 15.1512 31.0254 13.0089 33.5851 13.0089C35.5615 13.0089 37.3248 14.3 37.9735 16.222C38.3119 17.2256 39.2121 17.5754 40.1837 17.5754C41.806 17.5754 43.1251 18.9379 43.1251 20.6132V20.6211Z" fill="#6ABD18"/>
</svg>
