<svg width="2652" height="246" viewBox="0 0 2652 246" fill="none" xmlns="http://www.w3.org/2000/svg">
<path d="M-103 104C9.89011 71.3335 272.489 25.6002 419.763 104C603.856 202 697.903 239 786.948 237.5C875.992 236 1039.57 127 1105.61 54.5002C1171.64 -17.9998 1366.74 -25.9998 1421.77 140C1438.18 185 1503.6 267.5 1634 237.5C1654.17 229.667 1696.4 195.9 1704 123.5C1713.5 33.0002 1801 3.5002 1848.5 2.5002C1896 1.5002 2022 5.0002 2065 116.5C2108 228 2150.5 229.5 2194 237.5C2228.17 237.5 2302.6 213.3 2327 116.5C2357.5 -4.49976 2424.5 2.5002 2465.5 2.5002C2506.5 2.5002 2654.5 5.00012 2652 140" stroke="#6ABD18" stroke-width="3" stroke-dasharray="6 6"/>
</svg>
