<svg width="80" height="80" viewBox="0 0 80 80" fill="none" xmlns="http://www.w3.org/2000/svg">
<path d="M70.5811 37.0718C67.8589 35.7108 62.755 35.6951 62.5391 35.6951C61.8919 35.6951 61.3672 36.2198 61.3672 36.8669C61.3672 37.5141 61.8919 38.0388 62.5391 38.0388C63.8561 38.039 67.68 38.2418 69.533 39.1682C69.7012 39.2524 69.88 39.2921 70.0561 39.2921C70.4859 39.2921 70.8998 39.0546 71.1052 38.6441C71.3947 38.0652 71.16 37.3613 70.5811 37.0718Z" fill="#6ABD18"/>
<path d="M76.4238 53.7563L71.5839 52.3735C71.375 52.3138 71.2291 52.1204 71.2291 51.9031V50.2876C71.6228 50.0148 71.9984 49.7095 72.3495 49.3687C74.0511 47.7174 74.9881 45.5026 74.9881 43.132V40.9027L75.4561 39.967C75.9697 38.9396 76.2411 37.7895 76.2411 36.641V30.602C76.2411 29.9548 75.7164 29.4301 75.0692 29.4301H63.7922C59.6916 29.4301 56.3553 32.7663 56.3553 36.867V36.9368C56.3553 37.8918 56.5811 38.8482 57.0081 39.7023L57.6083 40.9026V42.8167C57.6083 45.8501 59.1031 48.5718 61.3673 50.2096L61.3677 51.9027C61.3677 52.1638 61.3677 52.272 60.4 52.5485L58.0384 53.2232L51.207 50.7391C51.2316 50.4168 51.1228 50.089 50.8877 49.842L48.7047 47.5485V43.6985C48.9355 43.5084 49.163 43.3131 49.3834 43.1065C52.1373 40.5252 53.7167 36.8809 53.7167 33.1079V30.0332C54.5483 28.2237 54.9697 26.3088 54.9697 24.3368V11.8071C54.9697 11.1599 54.445 10.6353 53.7978 10.6353H36.2558C30.0823 10.6353 25.06 15.6578 25.06 21.831V24.3371C25.06 26.3092 25.4814 28.224 26.313 30.0335V32.679C26.313 37.0596 28.2608 41.0062 31.325 43.6081V47.5487L29.142 49.8421C28.9069 50.0891 28.7981 50.417 28.8227 50.7393L21.6125 53.361C21.09 53.551 20.6045 53.8084 20.1637 54.1201L19.0316 53.554C22.4019 52.087 23.4695 50.0237 23.5208 49.9212C23.6858 49.5913 23.6858 49.2029 23.5208 48.8731C22.6759 47.1834 22.5736 44.0863 22.4914 41.5979C22.4641 40.7695 22.4381 39.9868 22.3886 39.2899C21.9891 33.669 17.7159 29.4301 12.4487 29.4301C7.18156 29.4301 2.90828 33.6688 2.50891 39.2899C2.45937 39.987 2.43344 40.7696 2.40609 41.5982C2.32391 44.0865 2.22141 47.1832 1.37672 48.8729C1.21172 49.2027 1.21172 49.5912 1.37672 49.921C1.42797 50.0235 2.49344 52.0826 5.87047 53.5513L2.72563 55.1237C1.04437 55.9649 0 57.6548 0 59.5343V68.192C0 68.8391 0.524687 69.3638 1.17188 69.3638C1.81906 69.3638 2.34375 68.8391 2.34375 68.192V59.5343C2.34375 58.5481 2.89172 57.6613 3.77375 57.2202L7.68984 55.2623L9.05203 56.5568C10.0045 57.462 11.2264 57.9143 12.4487 57.9143C13.6708 57.9143 14.8933 57.4616 15.8455 56.5568L17.2075 55.2624L18.4844 55.9009C17.8831 56.8629 17.5419 57.991 17.5419 59.1727V68.1923C17.5419 68.8395 18.0666 69.3641 18.7137 69.3641C19.3609 69.3641 19.8856 68.8395 19.8856 68.1923V59.1727C19.8856 57.564 20.9014 56.1137 22.4134 55.5638L30.0153 52.7996L33.1798 57.5466C33.5844 58.1535 34.2327 58.5427 34.9584 58.6146C35.0394 58.6226 35.1198 58.6265 35.2002 58.6265C35.8405 58.6265 36.4538 58.3745 36.9122 57.9162L38.8428 55.9856V68.1924C38.8428 68.8396 39.3675 69.3643 40.0147 69.3643C40.6619 69.3643 41.1866 68.8396 41.1866 68.1924V55.9856L43.1172 57.9162C43.5755 58.3746 44.1888 58.6266 44.8292 58.6266C44.9094 58.6266 44.99 58.6227 45.0708 58.6148C45.7967 58.5429 46.445 58.1537 46.8495 57.5468L50.0142 52.7999L57.6159 55.5641C59.1278 56.114 60.1438 57.5643 60.1438 59.1731V68.1926C60.1438 68.8398 60.6684 69.3645 61.3156 69.3645C61.9628 69.3645 62.4875 68.8398 62.4875 68.1926V59.1731C62.4875 57.5437 61.8402 56.0156 60.7542 54.8854L61.0437 54.8027C61.3358 54.7193 61.7342 54.6051 62.1342 54.409L65.1263 57.401V68.1926C65.1263 68.8398 65.6509 69.3645 66.2981 69.3645C66.9453 69.3645 67.47 68.8398 67.47 68.1926V57.401L70.4413 54.4298C70.5992 54.5101 70.7652 54.5779 70.9398 54.6277L75.7798 56.0106C76.8845 56.3262 77.6562 57.3492 77.6562 58.4982V68.1926C77.6562 68.8398 78.1809 69.3645 78.8281 69.3645C79.4753 69.3645 80 68.8398 80 68.1926V58.4982C80 56.3079 78.5294 54.3581 76.4238 53.7563ZM7.51797 51.6865C5.32594 50.8977 4.22641 49.8462 3.75703 49.272C4.07703 48.4354 4.28453 47.4773 4.425 46.4659C5.07125 48.0154 6.15359 49.3382 7.51797 50.282V51.6865ZM14.2313 54.8581C13.2317 55.8077 11.6659 55.8076 10.6667 54.8579L9.57687 53.8223C9.76078 53.4777 9.86188 53.0871 9.86188 52.6779V51.4288C10.6794 51.6843 11.5484 51.8221 12.4491 51.8221C13.3486 51.8221 14.2172 51.6837 15.0361 51.4296L15.0359 52.6777C15.0359 53.0871 15.1369 53.4779 15.3209 53.8226L14.2313 54.8581ZM12.4494 49.4784C8.95 49.4784 6.10328 46.6315 6.10328 43.1323C6.10328 42.4851 5.57859 41.9604 4.93141 41.9604C4.86578 41.9604 4.80172 41.9671 4.73906 41.9776C4.7425 41.8768 4.74578 41.7759 4.74922 41.676C4.77531 40.8702 4.80047 40.1092 4.84688 39.4563C4.99656 37.3507 5.83797 35.4104 7.21609 33.9926C8.60656 32.562 10.465 31.7742 12.4491 31.7742C14.4331 31.7742 16.2914 32.562 17.682 33.9926C19.0602 35.4104 19.9016 37.3507 20.0513 39.4563C20.0975 40.109 20.1228 40.8699 20.1494 41.6756C20.1517 41.7448 20.1541 41.8149 20.1564 41.8846C18.8814 39.9202 16.9123 38.4726 14.3681 37.6551C12.0177 36.8999 9.99609 36.9467 9.91078 36.9488C9.60391 36.9574 9.31266 37.0859 9.09969 37.3068L6.98531 39.4996C6.53609 39.9656 6.54953 40.7074 7.01547 41.1567C7.48141 41.6059 8.22328 41.5923 8.6725 41.1265L10.4319 39.302C11.947 39.376 16.8216 39.9429 18.7173 44.1174C18.2403 47.1937 15.5963 49.4784 12.4494 49.4784ZM17.3795 51.6904L17.3797 50.2927C18.743 49.3541 19.8269 48.0338 20.4736 46.4726C20.6141 47.4817 20.8214 48.4376 21.1408 49.2723C20.6741 49.841 19.5694 50.902 17.3795 51.6904ZM28.6567 32.6788V29.7713C28.6567 29.5949 28.6169 29.4207 28.5402 29.2618C27.7861 27.7003 27.4038 26.0434 27.4038 24.3371V21.8312C27.4038 16.9501 31.3748 12.9792 36.2558 12.9792H52.6259V24.3373C52.6259 26.0435 52.2436 27.7004 51.4895 29.262C51.4128 29.4209 51.373 29.5951 51.373 29.7715V33.1082C51.373 36.2818 50.0972 39.2254 47.7806 41.3968C47.4914 41.6677 47.1912 41.9218 46.8809 42.1585C46.8741 42.1632 46.8675 42.1684 46.8608 42.1732C44.6906 43.8209 42.0325 44.6217 39.2566 44.4418C33.3127 44.057 28.6567 38.8901 28.6567 32.6788ZM35.255 56.2587C35.2469 56.2668 35.228 56.286 35.1897 56.282C35.1516 56.2782 35.1366 56.2559 35.1302 56.2462L31.4856 50.7793L32.6584 49.547L38.1873 53.3262L35.255 56.2587ZM40.0148 51.7363L33.6688 47.3985V45.211C35.3108 46.0987 37.1494 46.6538 39.1048 46.7804C39.4137 46.8004 39.7208 46.8102 40.0269 46.8102C42.2677 46.8102 44.4242 46.2746 46.3609 45.2579V47.3985L40.0148 51.7363ZM44.8995 56.2465C44.8931 56.2562 44.8781 56.2785 44.84 56.2823C44.8017 56.2871 44.783 56.267 44.7747 56.259L41.8423 53.3266L47.3713 49.5473L48.5442 50.7796L44.8995 56.2465ZM66.2981 55.2577L63.6387 52.5985C63.6852 52.3877 63.7114 52.157 63.7113 51.9024L63.7111 51.4079C64.4491 51.6501 65.2269 51.7938 66.0317 51.8179C66.122 51.8207 66.2116 51.822 66.3016 51.822C67.1909 51.822 68.0591 51.6876 68.8853 51.4312V51.9031C68.8853 52.1368 68.9147 52.3659 68.97 52.586L66.2981 55.2577ZM70.7173 47.6868C69.4753 48.8921 67.8345 49.5287 66.1022 49.4752C62.7109 49.3735 59.952 46.3865 59.952 42.817V40.6262C59.952 40.4442 59.9097 40.2648 59.8283 40.1021L59.1044 38.6543C58.8392 38.1238 58.6991 37.5301 58.6991 36.937V36.8671C58.6991 34.0587 60.9839 31.774 63.7922 31.774H73.8973V36.6412C73.8973 37.4277 73.7114 38.2154 73.3597 38.919L72.7681 40.1021C72.6867 40.2649 72.6444 40.4442 72.6444 40.6262V43.1321C72.6444 44.8634 71.96 46.4809 70.7173 47.6868Z" fill="#6ABD18"/>
<path d="M73.8164 59.5022C73.1692 59.5022 72.6445 60.0269 72.6445 60.6741V68.192C72.6445 68.8392 73.1692 69.3639 73.8164 69.3639C74.4636 69.3639 74.9883 68.8392 74.9883 68.192V60.6741C74.9883 60.027 74.4636 59.5022 73.8164 59.5022Z" fill="#6ABD18"/>
<path d="M6.18359 61.0513C5.53641 61.0513 5.01172 61.576 5.01172 62.2231V68.1921C5.01172 68.8392 5.53641 69.3639 6.18359 69.3639C6.83078 69.3639 7.35547 68.8392 7.35547 68.1921V62.2231C7.35547 61.5761 6.83078 61.0513 6.18359 61.0513Z" fill="#6ABD18"/>
<path d="M49.6148 24.7618C45.1826 20.3296 35.9093 21.177 32.1277 21.747C30.9366 21.9265 30.0723 22.9345 30.0723 24.1437V26.8434C30.0723 27.4906 30.597 28.0152 31.2441 28.0152C31.8913 28.0152 32.416 27.4906 32.416 26.8434V24.1435C32.416 24.1037 32.4423 24.0696 32.4773 24.0643C33.9877 23.8366 36.9851 23.4854 40.0905 23.6924C43.7449 23.9357 46.3918 24.8531 47.9576 26.419C48.4152 26.8766 49.1573 26.8766 49.6148 26.419C50.0724 25.9613 50.0724 25.2193 49.6148 24.7618Z" fill="#6ABD18"/>
<path d="M26.2314 62.0083C25.5843 62.0083 25.0596 62.533 25.0596 63.1802V68.1922C25.0596 68.8394 25.5843 69.3641 26.2314 69.3641C26.8786 69.3641 27.4033 68.8394 27.4033 68.1922V63.1802C27.4033 62.5331 26.8786 62.0083 26.2314 62.0083Z" fill="#6ABD18"/>
<path d="M53.7979 62.0083C53.1507 62.0083 52.626 62.533 52.626 63.1802V68.1922C52.626 68.8394 53.1507 69.3641 53.7979 69.3641C54.445 69.3641 54.9697 68.8394 54.9697 68.1922V63.1802C54.9697 62.5331 54.445 62.0083 53.7979 62.0083Z" fill="#6ABD18"/>
</svg>
